<svg xmlns="http://www.w3.org/2000/svg" width="879.8" height="886.8" data-name="Layer 1"><path fill="#e2e3e4" d="M879.4 366.4v69l-89-57v-70Zm-6 21v-2l-7-5v3Zm0-13v-5l-77-50v4Zm-1 33v-2l-21-14v3Zm0-14v-2l-16-10v2Zm-4 5v-3l-10-6v3Zm-6-18v-2l-26-17v2Zm-7 9v-2l-23-15v2Zm-2-8v-2l-6-4v2Zm-6 10v-2l-15-10v2Zm-4-16v-3l-5-3v2Zm-9-6v-3l-25-16v3Zm-2-9v-2l-9-6v2Zm-2 20v-2l-9-6v2Zm-2-8v-2l-9-6v2Zm-9-19v-3l-23-14v2Zm-1 19v-2l-21-13v2Zm-7 5v-3l-17-11v3Zm-8-23v-2l-12-7v2Z"/><path fill="#f7fcfe" d="M873.4 385.4v2l-7-4v-3Zm0-16v5l-77-51v-4Zm-1 36v2l-21-13v-3Zm0-14v2l-16-10v-2Zm-4 4v3l-10-6v-3Zm-6-17v2l-26-17v-2Zm-7 9v2l-23-15v-2Zm-2-8v2l-6-4v-2Z"/><path fill="#fff" d="M376.5 665.4c-2.5 5.4-.8 6 0 10-.8 1.6-2.1 3.8 0 5h1a23.5 23.5 0 0 1-2 6c.7.3 4.1 3.6 5 3 7 4 10.6-6 14 7-2.3 1.7-5.3.9-8 1s-4 2.5-5 4-2.3 4.7 0 4c.5 3.7 6.5 1.4 9 2a7 7 0 0 1 4-1v1c2 2 2 3 1 4a3.4 3.4 0 0 1 0 2 3.7 3.7 0 0 1-3 1 10.1 10.1 0 0 0 3 0l1-1c-.4 3.9 3 7 2 11s2.4 5.3 0 7c-.6 1.1-1.3 3.5-3 3l-1 1a6.7 6.7 0 0 0-2 0 .7.7 0 0 1-1 1c-.2 1.3.1 2.7 0 4a1.7 1.7 0 0 1 1 0v1h9a1.7 1.7 0 0 0 0-1 1.9 1.9 0 0 0 1-1c-.5-2.4 2.5-2 4-2 4-4.3.9-12.2 6-16l1-5h3c3.3 4.8 4.8 6.3 4 10 2.9-.4 2.3-2.9 2-5l-1-1a11.8 11.8 0 0 0-1-3h9c1.7-.5 5.2-1.3 7-1 0 2.4.5 4.7-2 6 .2 1.1-.8 2.4-2 2l-2 1c-2.4-.4-5.8 1.1-5 4 .8 2.6 3.9 2 6 2a4.7 4.7 0 0 0 1-1 13.4 13.4 0 0 1 2 0 2.4 2.4 0 0 0 1 1 24.9 24.9 0 0 0 4-2 11.7 11.7 0 0 1 4-3c1.7-1 .8-5.5 4-4a3.1 3.1 0 0 1-1 2l3-3a6.7 6.7 0 0 1 0-2c3.7-2.6.8-8.2 4-11 .3 1.6 2.9 3.9 4 5 1.8 4.2 3.8 9.3 3 14a4.7 4.7 0 0 0-1 1c.4 2.7-.9 3-3 4v1l-1 1v1a.9.9 0 0 0-1 0 1 1 0 0 0 1 1 2.4 2.4 0 0 0 1 1c-.7 2.2 1.9 2.5 3 1a.9.9 0 0 0 1 1c1 2.2 3.3.5 4-1a1.7 1.7 0 0 0 0 1c2.3.7 2.3-2.6 3-4 3.7-2.9 4.4-5.6 4-10s3.9-4.9 1-8v-1a7.5 7.5 0 0 1-1-2 26.7 26.7 0 0 0 4 0 7.5 7.5 0 0 1-2-1l-2-6 3 3c-4.6-6.2-.6-13.4 0-20-.7-4.4-3.5-12.8-1-17l2-1v-1a10.5 10.5 0 0 0 2-7c4.2-3.1 1.6-9.5-1-13-1.9 3.6-3.9 7.4-7 10a3 3 0 0 0-2 1v2c-1.6 2.4-5.3 3.7-7 6h-1a4.8 4.8 0 0 1-4 1 2.4 2.4 0 0 0-1-1c-1.1 1.6-11.4.9-13 1a24.1 24.1 0 0 1-8 1 7.2 7.2 0 0 1-5 1 4.7 4.7 0 0 1-1-1c1-.1 2 .2 3 0a.9.9 0 0 0 0-1c-9.6 1.5-17.4-5-24-11-2.1-1.9-6.3-2.5-9-3-7.7-4-18.8-1.1-21 8Zm472.9 4-423.9 217-376.9-244 53-27 8 30a17.6 17.6 0 0 0 5 4c13.8 8.6 34.3 8.8 46-4 0-1.3 19.5-69.7 19-71l68-34 4 11c2.2 7.8-1.4 17 3 24-.5.3 2.9 10.5 3 11s-.2 4.6 0 6a19.6 19.6 0 0 1 .9 8l1 14c-.2 3-1.3 5.9-.9 9 .6 1 1.3 2.7.9 4a4.3 4.3 0 0 1-.9 1c.9 5.5-2.4 5.7-3.1 10-1.1 1.7-3.7 2.7-3.9 5s-2.2 4.8-3 6c-3.2 8.1-5.9 18.6-8 27-.9 11.1-5.2 23.1-7 34-1.8 3-3.1 11.6-3 15l-1 1v2l15 4 1-2c7.8 5.3 17.2 4.5 25.9 3 .1 1.3-.2 2.7 0 4 5.1 2.9 12.2 2 18 3v-2a59 59 0 0 1 7-1c6.4 4.7 15.1 3.7 22-1a1.7 1.7 0 0 0 1 0 2.3 2.3 0 0 0 0-2 5.4 5.4 0 0 0 1-2 1.9 1.9 0 0 0-1-1 1.8 1.8 0 0 0-2-1c-3.3-1.7-7.4-.7-11-1l-12-9a3.5 3.5 0 0 0 1-2l-1-1c0-2.3-.2-4.7 0-7s1.6-4.2 1-6-1.8-4.8-1-7c2.5-9.2 3.6-22.8 6-32-.4-4.5.8-9.7 2-14l1-1v-1c5.4-4.1 1.5-10.7 4-16 .9-3.4 1.2-10.5 1-14l1-10c1.3-9.2 3.3-22.8 1-32h1c2.6-3.1 0-12.3 0-16a135.6 135.6 0 0 0-1-22 51.2 51.2 0 0 1 11-1c1.6-1.3 4-2.6 6-2s9.1.3 11-1a11.8 11.8 0 0 0 1-3c3.5.1 10.4 2.6 13 0a1.6 1.6 0 0 1 2-1 1.7 1.7 0 0 0 0-1 .9.9 0 0 0 1-1c2.1.5 2.8-3.1 1-4h1c1.3 1.5 2.9 3.2 5 3l2 3h13c1.2-4.4 4.4-6.9 4-12-6.6-.3-14.3.1-21 0v1h-1c.5-.7-.2-1.5-1-1h-32c-3.9.9-14.9 1.7-19 2l-2-11 166-86 23 15c-28.4 10.1-62.5 31.5-90 44-22.7 14.2-22.2 34.5 1 48 25.9 16.2 77.5 49.3 103 66 3 1.9 17.6 10.8 20 13 23 7.6 49.7 10.3 72-1 19.7-12 66.7-32.8 85.9-46v1l42 28c-18.6 8.2-61.5 30.1-78.9 40-11.4 4.3-22.6 17.2-18 30 4.9 14.3 22.6 20.8 34 28 44.2 18.9 85.2-9.4 122.9-29 5.1-2.9 21-9.7 25-14Z"/><path fill="#f7fcfe" d="M847.4 389.4v2l-15-10v-2Zm-4-17v3l-5-4v-2Zm-9-6v3l-25-16v-3Zm-2-8v3l-9-7v-2Zm-2 20v2l-9-6v-2Zm-2-8v2l-9-6v-2Z"/><path fill="#fff" d="M804.4 627.4a4.7 4.7 0 0 0 1-1c2.1-7.6-34.1-24-38-28s-11-3-15-1l-93.9 48c-2.8 2.4-5.8 5.1-5 9l4 5 32.9 22a15.3 15.3 0 0 0 16 0l76-39c3.9-2.9 22.4-8.3 22-15Zm20-6c6.5 21.5-20.9 32.4-36 40-30.1 15.5-73.3 44.1-109 33-9.8-.5-24.6-10.2-32.9-15-11.2-6.1-22.2-22.7-12-35 6.3-10 23.3-15.8 33-22 30.9-14.8 72.8-43.1 108.9-33 14.2 2.9 43.1 17.6 48 32Z"/><path fill="#ededee" d="M823.4 425.4v115l-146-95v-76l94 61v-27l47 31v-5l-47-30v-8Zm-7 102v-34l-132-86v35Zm0-41v-37l-22-15v37Z"/><path fill="#f7fcfe" d="M819.4 350.4v3l-23-15v-2Zm-1 79v5l-47-31v-4Zm0-59v2l-21-13v-2Z"/><path fill="#ededee" d="M817.4 493.4v34l-132-85v-35Zm0-44v37l-23-15v-37Z"/><path fill="#f7fcfe" d="M811.4 374.4v3l-17-11v-3Z"/><path fill="#616264" d="M800.4 631.4a6 6 0 0 0-2-5 3.9 3.9 0 0 0 1-7c5.8-1.2 7.4 11.9 1 12Z"/><path fill="#616264" d="M804.4 627.4a8.1 8.1 0 0 1-4 6v-2a4.3 4.3 0 0 0 4-4Z"/><path fill="#f7fcfe" d="M803.4 352.4v2l-12-7v-2Z"/><path fill="#616264" d="m767.4 598.4 34 21a1.8 1.8 0 0 0-2 0l-34-21a1.8 1.8 0 0 1 2 0Zm33 33-16 8a1 1 0 0 0-2 0l-9 5-1 2-65 33a5.6 5.6 0 0 0-3-4l94-49a6 6 0 0 1 2 5Zm-16 9 16-9v2l-18 9a2 2 0 0 0 2-2Z"/><path fill="#ededee" d="M799.4 619.4a3.9 3.9 0 0 1-1 7l-94 48c-8.9 7.7-37.3-18-44.9-21-3-3-2-6 1-7 7.3-1.3 98.5-58.9 104.9-48Zm-18-5v-1c-.6-.1-7.4-4.8-8-4s7.4 6 8 5Z"/><path fill="#616264" d="M782.4 639.4c1 0 2 0 1 1 .9 2.6-8.8 5-10 6s-1 0-1-1 9.3-5.4 10-6Z"/><path fill="#616264" d="m782.4 642.4-76 39c.5-1.6 65-34 66-35l1 1Zm-1-29v1c-.6 1-7.4-4.9-8-5s7.4 3.9 8 4Z"/><path fill="#ededee" d="M771.4 403.4v27l-94-61v-39l94 61v8l-88-58v5Z"/><path fill="#f7fcfe" d="M771.4 399.4v4l-88-57v-5Z"/><path fill="#ededee" d="M771.4 271.4v120l-94-61v39l-81.9-53v-88l-26-17v-72Zm-5 8v-4l-190.9-124v5Zm-27 18c.8-3.7-6-12.6-7-5-1.1 4 6.5 11.3 7 5Zm0 23a9.4 9.4 0 0 0-3-6c-4.9-5.9-4.7 4.8-2 7s5 2 5-1Zm0 23c.4-3.1-6.2-11.4-7-5-1 4.1 6.6 12 7 5Zm-19-58c1.7-4.4-6.5-13.2-7-5-.3 3.1 6.3 11.4 7 5Zm0 23c1.7-4.4-6.5-13.2-7-5-.3 3.1 6.3 11.4 7 5Zm0 23c1.1-4.1-6.5-12-7-5-.3 3.1 6.3 11.4 7 5Zm-55.9-37c.3-3.7-6.9-11.4-8-5-.9 4.2 6.9 13.2 8 5Zm0 23c.3-3.7-6.9-11.4-8-5-.9 4.2 6.9 13.2 8 5Zm0 23a10.4 10.4 0 0 0-3-6c-2-2-5-2-5 2s7.1 11.8 8 4Zm-19-127a10.6 10.6 0 0 0-3-7c-2-2-5-2-5 2s6.8 11.4 8 5Zm0 23a10.6 10.6 0 0 0-3-7c-2-2-5-2-5 2s6.8 11.4 8 5Zm0 23a10.4 10.4 0 0 0-3-6c-2-3-5-2-5 1s6.8 11.4 8 5Zm0 23c.3-3.7-6.8-11.4-8-5-.4 3.7 6.8 11.4 8 5Zm0 23c.3-3.7-6.8-11.4-8-5-.2 3.8 6.9 12.1 8 5Zm0 23c.3-3.7-6.8-11.4-8-5-.9 4.2 6.9 13.2 8 5Zm-19-105a10.4 10.4 0 0 0-3-6c-2-2-5-2-5 2s7.1 11.8 8 4Zm0 24a10.6 10.6 0 0 0-3-7c-2-2-5-2-5 2s6.8 11.4 8 5Zm0 23a10.6 10.6 0 0 0-3-7c-2-2-5-1-5 2s6.8 11.4 8 5Zm0 23a10.4 10.4 0 0 0-3-6c-2-3-5-2-5 1s6.8 11.4 8 5Zm0 23c.3-3.7-6.8-11.4-8-5-.2 3.8 6.9 12.1 8 5Zm-19-58a10.2 10.2 0 0 0-3-7c-5.1-4.9-4.7 5.6-2 8s5 2 5-1Zm0 23a10.2 10.2 0 0 0-3-7c-5.1-4.9-4.7 5.6-2 8s5 2 5-1Zm0 23a10.4 10.4 0 0 0-3-6c-5-5.9-4.8 4.8-2 7s5 2 5-1Z"/><path fill="#616264" d="M767.4 598.4a1.7 1.7 0 0 0-1 0c-5-2.7-9.7-1.2-14-1 4-2 11-2 15 1Z"/><path fill="#f7fcfe" d="M766.4 275.4v4l-190.9-123v-5Z"/><path fill="#616264" d="m753.4 597.4-92.9 49a2 2 0 0 0-2-1c.9 0 93.8-48.9 94.9-48Z"/><path fill="#90bfdc" d="M736.4 291.4c3.4 2.5 5 11.8-2 7-2.7-2.2-2.9-12.9 2-7Zm0 23c3.4 2.5 5 11.8-2 7-2.5-2.4-3.3-11.9 2-7Zm0 23c3.6 2.4 4.7 12.9-2 7-2.5-2.4-3.3-11.9 2-7Zm-18-59a9.4 9.4 0 0 1 2 7c0 3-2 3-4 1-3.6-2.6-4.6-12.9 2-8Zm0 23a9.4 9.4 0 0 1 2 7c0 3-2 3-4 1-3.6-2.6-4.6-12.9 2-8Zm0 24c2.5 2.4 3.4 11.9-2 7-3.6-2.4-4.6-12.9 2-7Z"/><path fill="#616264" d="M707.4 680.4c-1.7 3.8-17.9 5-17-1 4 3 12 3 17 1Z"/><path fill="#616264" d="M704.4 674.4a5.8 5.8 0 0 1 3 5c-5 2-13 2-17-1a5.1 5.1 0 0 1 2-4c4 2 9 2 12 0Z"/><path fill="#fff" d="M559.5 605.4c1 0 107.8-56.9 109-56 2.9-1.2 1.7-6.5 2-9 .8.6 3.3-1.7 3.9-2a10.5 10.5 0 0 1 2-3v-16c24 13.6 28.1 35.9 1 50-16 7.8-62.2 31.8-76.9 40-22.3 11.3-49 8.6-72 1-2.3-2.2-17.1-11.1-20-13a8558.7 8558.7 0 0 0-103-66c-23.1-13.8-24-33.5-1-48l20-10c28-12.4 60.6-37.1 92-38 .1 1.2-.2 2.8 0 4-2.3-1.4-11 4.3-13 5s-96.7 49.9-98 51l-2 2c.5 1.8-1.5 10.2 2 10l149 97a6.8 6.8 0 0 0 7 0Z"/><path fill="#616264" d="m659.5 653.4 32.9 21a5.1 5.1 0 0 0-2 4l-13-8c-.6-2.4-3.9-4-5.9-5 0-1.3-2.1-1.3-2 0l-13-8a4.8 4.8 0 0 1 3-4Zm30.9 28-32.9-22a1.9 1.9 0 0 1-1-1l13 8c.5 2 5.4 3.7 6.9 5h1l13 8a2.3 2.3 0 0 0 0 2Z"/><path fill="#616264" d="m673.4 666.4 3 2c.3.7 1.6 2.3 1 3h-1l-4.9-3Z"/><path fill="#adafb2" d="M675.4 417.4v119l-2.9 2v-119Z"/><path fill="#adafb2" d="m675.4 417.4-2.9 2a8.3 8.3 0 0 0-3-6l3-2a7.9 7.9 0 0 1 2.9 6Z"/><path fill="#616264" d="m673.4 666.4-1.9 2c-3.5-.7-1.8-6.4 0-3Z"/><path fill="#adafb2" d="M671.5 540.4a1.7 1.7 0 0 1-1 0v-2l-1-2-18-11v-2l-114-73v1c-2.9-1.3-17.8-13-21-12v-121l1-2c2.4-2.2 150 97 152 97 5.8-.9 2.9 125.3 2 127Zm-4-9v-114l-145-94v114Z"/><path fill="#adafb2" d="m672.5 412.4-3 1-150-97 3-2Zm-269 85c6.9-5.9 105.2-54.5 110-58s19.3 9.8 24 12l-6 4h1l112 73 3-2 4-1v-1c.9 1 19.8 12.2 19 14-1.8 4-106.3 54.4-109 57-3 7.1-64.4-38.5-68-39l1-1v-1l-20-13h-4l-65-42a3.1 3.1 0 0 1-2-2Zm156 45c6.9 4.7 15.6 9.4 22 15 2.2.2 7.2 3.8 9 5a10.8 10.8 0 0 0 4 3l53-28-132-85-53 27c4.2 2.4 10 6.3 14 9 2.4 2.6 7.5 6.2 11 7 19.1 13.8 52.7 33.3 72 47Zm-12 1-49-31-33 17h1l48 31Z"/><path fill="#adafb2" d="M670.5 540.4c-.4 1.6 1.2 8.9-2 8v-8a3.5 3.5 0 0 0 2-1Zm-2 0v9l-107 55v-9Z"/><path fill="#ededee" d="M667.5 417.4v114l-145-94v-114Z"/><path fill="#90bfdc" d="M661.5 288.4c3.9 2.7 4.1 13-2 8-3.8-2.6-4.6-13.2 2-8Zm0 23c3.9 2.7 4.1 13-2 8-3.8-2.6-4.6-13.2 2-8Zm0 23c3.9 2.7 4.1 13-2 8-4-2.7-4.2-13 2-8Z"/><path fill="#616264" d="M658.5 645.4a2 2 0 0 1 2 1c-3 1-4 4-1 7a4.8 4.8 0 0 0-3 4l-3-4c-.5-3.5 2.6-5.8 5-8Zm-1 14-4-5a5.6 5.6 0 0 0 3 4 1.9 1.9 0 0 0 1 1Z"/><path fill="#adafb2" d="m651.5 525.4-4 1 4-3Zm0-2-7 5-112-73a21.5 21.5 0 0 1 5-4v-1Zm-4 14-53 28-2-1 51-27Z"/><path fill="#adafb2" d="M647.5 537.4h-4l-125-81-3-4Z"/><path fill="#90bfdc" d="M642.5 206.4c3.7 2.6 4.5 13.2-2 8-4-2.7-4.2-13 2-8Zm0 23c3.7 2.6 4.5 13.2-2 8-4-2.7-4.2-13 2-8Zm0 24c3.7 2.6 4.4 12-2 7-4-2.6-4-13.1 2-7Zm0 23a10.4 10.4 0 0 1 3 6c0 3-3 3-5 1-3.7-2.6-4.5-12 2-7Zm0 23a10.4 10.4 0 0 1 3 6c-2.7 11-14.5-13.2-3-6Zm0 23c3.9 2.7 4.1 13-2 8-3.8-2.6-4.6-13.2 2-8Z"/><path fill="#616264" d="M543.5 474.4h-1c-1.4-.5-6.4-5.4-8-4h-1v-1a.9.9 0 0 0 1 0v-1c-2.2-.9-7-6.5-9-3v-3l-6-3a2 2 0 0 0-2-1c-.4.5-4 1.9-3 3v1l-1-1c-1.8 1.1-5.6 2.3-7 4l5 4h3l4-3v2c-1.2.5-4.8 1.1-4 3l6 3v1c-1.2-.5-3.7-1.3-5-1l-1 1v-1a2.4 2.4 0 0 0 1-1c0-.5-9.4-6.6-10-7s-6.7 1.7-8 3a.9.9 0 0 0 1 1v1h-1c-1.9-2.9-6.1 1.1-8 2v2c-2.4-1.7-5.8 1.1-8 2l-1 1a2.4 2.4 0 0 0 1 1v1l-2-1c-2.4 1-7.3 2-9 4v1l-3-2 51-26 125 81-51 27-2-2v-1c1.2.8 2.9-.5 4-1a.9.9 0 0 0 1 0c-.5-.7-5.3-4.4-6-5a1.8 1.8 0 0 0-2 0c-.4.5-4 1.9-3 3l-3-1v-1c1.2.8 3.7-.8 5-1a1.7 1.7 0 0 0 0-1c1.5 1.1 3-1.1 4-2a.9.9 0 0 0 1 0c-.5-.9-5.2-3.4-6-4v-2l14 9c2.1 2.6 5.8.1 8-1a1.7 1.7 0 0 0 0-1v-1l-10-6v-2l11 7c1.9 1.4 5.2-1.3 7-2a.9.9 0 0 0 1 0l-1-2-6-4v-1h2l5-3v2l-4 1-1 1a.9.9 0 0 0 1 1l5 3h3c.9-.6 4.5-1.9 5-3v-1c1.9 1.4 5.2-1.3 7-2a1.8 1.8 0 0 0 1-2l-5-3h1v-1l6 4c.8.6 3.3-1.7 4-2v-1c-2.2-.9-7-6.5-9-3v-1a1.7 1.7 0 0 0 0-1l-6-4c-1-.6-2 .2-3 0v-1a.9.9 0 0 0 1 0l-1-1c-.7-.3-6.3-4.7-7-4l-1 1-1-1v-1a.9.9 0 0 0 1 0l-1-1c-.7-.3-6.3-4.7-7-4l-1 1v-1a1.7 1.7 0 0 0 0-1c-1.4-.5-6.4-5.4-8-4h-1v-2c-2.2-.9-7-6.5-9-3v-2a.9.9 0 0 0 1 0c-.4-1-6.1-3.5-7-4a2.4 2.4 0 0 0-1-1l-1 1h-1v-1a1 1 0 0 0 1-1c-1.4-.5-6.4-5.4-8-4h-1v-2c-2.2-.9-7-6.5-9-3v-3c-2.2-.9-7-6.5-9-3v-1a.9.9 0 0 0 0-1l-6-4c-1.2-.8-2.9.5-4 1v2l-2-1h-3l-1 1v-1a3.2 3.2 0 0 0 1-1v-1l-4-2v-2c1.4.5 6.3 5.4 8 4s3-.8 3-2Z"/><path fill="#616264" d="M639.5 537.4c-.7.3-3.2 2.5-4 2l-6-4a.9.9 0 0 1-1-1h1l2-2c1.6-1.4 6.6 3.5 8 4Zm-23-1c1.3-1.3 6.1-4.4 8-3a70.4 70.4 0 0 0 9 6 1.8 1.8 0 0 1-1 2c-1.8.7-5.1 3.4-7 2-.2-.5-10.5-5.9-9-7Zm14-5a1.7 1.7 0 0 1 0 1c-1.1.5-2.8 1.8-4 1l-6-4a.9.9 0 0 1-1 0l2-2c1 .2 2-.6 3 0l6 4Z"/><path fill="#616264" d="M621.5 532.4v-1l-1-1v-1l6 4c1.2.8 2.9-.5 4-1v1l-1 1h-1a.9.9 0 0 0 1 1v1h-1c-1.7-1-4.8-4.7-7-3s-5.9 2-5 4v1l-3-2v-1a64 64 0 0 1 7-3 1.7 1.7 0 0 0 1 0Z"/><path fill="#90bfdc" d="M623.5 217.4c3.9 2.7 4.1 13-2 8-4-2.7-4.2-13 2-8Zm0 23c3.7 2.6 4.5 13.2-2 8-4-2.7-4.2-13 2-8Zm0 23a10.6 10.6 0 0 1 3 7c-1.2 6.4-8.4-1.3-8-5s3-4 5-2Zm0 24c3.7 2.6 4.4 12-2 7-4-2.6-4-13.1 2-7Zm0 23a10.4 10.4 0 0 1 3 6c-2.7 11-14.5-13.2-3-6Z"/><path fill="#616264" d="m617.5 539.4-1-1v-1l9 6v1a1.7 1.7 0 0 0 0-1c-1.4-.6-6.4-3.7-8-3l-1 1v-2a1.7 1.7 0 0 0 1 0Z"/><path fill="#616264" d="m611.5 544.4 1-2 4-1 1-1c1.6-.7 6.6 2.4 8 3 .8 2.1-4 3.2-5 4h-3l-5-3a.9.9 0 0 1-1 0Zm0-21v-1h2l1-1c.7-.7 6.3 3.8 7 4l1 1a.9.9 0 0 1-1 0c-1.1.5-2.8 1.8-4 1Z"/><path fill="#616264" d="M612.5 526.4v-1l-4-2v-1c1.5 1.1 3-1.1 4-2v1l1 1h-2v1l6 4c1.2.8 2.9-.5 4-1v1l-2 2a.9.9 0 0 0 1 0v1l-5-3h-3c-.9.6-4.5 3.2-5 4l6 4v1l-2-2c-.7.2-3.3 1.2-4 1v-1a3.2 3.2 0 0 0 1-1l-4-3v-1h3c.9-.6 4.5-1.9 5-3Z"/><path fill="#616264" d="M607.5 531.4c1.6-1.9 5.6-3.2 8-4s5.5 3.1 6 4c-1.4 1.9-6.2 2.7-8 4Zm-4 7c.5-.8 3.1-2.5 4-3s3.3-.8 4-1c1.3 1.8 4.4 3.4 6 5a1.7 1.7 0 0 1-1 0l-5 3h-2Zm13 11a.9.9 0 0 1-1 0c-1.8.7-5 3.4-7 2l-11-6c-1-1 0-2 1-2l3-2h1c1.9-1.4 5.2 1.3 7 2l6 4Zm-3-29a.9.9 0 0 1-1 0l-2 2a2 2 0 0 1-2-1l-6-3a.9.9 0 0 1 0-1 7.5 7.5 0 0 0 3-2c1.6-1.4 6.6 3.5 8 4Zm-14 5c.5-1 3-1.7 4-2l1-1h2l6 3v1c-.4 1.1-4.2 2.4-5 3s-6.6-2.4-8-3a.9.9 0 0 1 0-1Z"/><path fill="#616264" d="m603.5 538.4 6 4v1c-3.2-1.5-4.4-2.9-8-2v-1a3.2 3.2 0 0 0 1-1l-1-1h-1v-1a38.8 38.8 0 0 0 7-3v1c-.9.6-3.5 2.2-4 3Z"/><path fill="#616264" d="M595.5 533.4c-1-1 0-1 1-2s3.4-1 4-2c2.7-.6 5.9 2.6 8 4-.4 1.1-4.2 2.4-5 3h-3Zm9-12v-1l-5-3v-1c1.2.8 3.7-.8 5-1v1l-2 1a.9.9 0 0 0 0 1l6 3v2l-2-1h-2l-1 1v-2a1.7 1.7 0 0 0 1 0Zm-20 25 1-2 3-1c1.1-1.8 3.6-1.4 5 0h1c1.6 2.6 10.4 7.4 13 9v1a1.7 1.7 0 0 1 0 1c-2.2.9-5.6 3.7-8 2l-14-10a1.7 1.7 0 0 1-1 0Z"/><path fill="#90bfdc" d="M604.5 251.4a10.2 10.2 0 0 1 3 7c0 3-2 3-5 1s-3.1-12.9 2-8Zm0 23a10.2 10.2 0 0 1 3 7c0 3-2 3-5 1s-3.1-12.9 2-8Zm0 24c3.3 2.5 4.9 11.8-2 7-2.8-2.2-3-12.9 2-7Z"/><path fill="#616264" d="M600.5 528.4v-1l-4-2v-1h3l4-3v2c-1.2.5-4.8 1.1-4 3l6 3v1c-1.2-.5-3.8-1.3-5-1l-1 1v-1a3.2 3.2 0 0 0 1-1Zm4-14a1.7 1.7 0 0 1 0 1c-1.3.2-3.8 1.8-5 1l-6-4 2-2h1c1.6-1.4 6.6 3.5 8 4Z"/><path fill="#616264" d="M590.5 520.4c1.6-1.9 5.6-3.2 8-4 .4.9 5.1 3.4 6 4v1a1.7 1.7 0 0 1-1 0 38.8 38.8 0 0 1-7 3Zm-2 18c.5-1 3-1.7 4-2l1-1h3l4 3h1l1 1c-.4 1.2-5.1 2.5-6 3s-6.6-2.4-8-3a.9.9 0 0 1 0-1Z"/><path fill="#616264" d="m596.5 542.4 5-2v1l-3 2c-1 0-2 1-1 2v1l-3-3v-1Zm-2-11 5-3v2c-8.9 2.5-1.7 3.8 2 6v1l-1 1-4-3h-4v-1l1-1-1-1v-1Z"/><path fill="#616264" d="M586.5 527.4c.5-.8 3.1-2.5 4-3s3.3-.8 4-1c1.3 1.8 4.4 3.4 6 5a1.7 1.7 0 0 1-1 0l-5 3h-2Z"/><path fill="#616264" d="M587.5 510.4v-1l-5-3v-1c1.5 1.1 3-1.1 4-2v1l-2 2a.9.9 0 0 0 1 0l6 4c1.2.8 2.9-.5 4-1v1l-2 1c-1.3 1.1 5.7 4.4 6 5v1l-1-1c-2.4.8-6.4 2.1-8 4l6 4v1l-2-2c-.7.2-3.3 1.2-4 1v-1a3.2 3.2 0 0 0 1-1v-1l-3-2v-1h2c.9-.6 4.6-1.9 5-3v-1l-6-3h-3v-1a1.7 1.7 0 0 0 1 0Z"/><path fill="#616264" d="M595.5 515.4c-.4 1.1-4.2 2.4-5 3s-6.6-2.4-8-3 .5-1.5 1-2 3.4-1 4-2 6.6 2.4 8 3Zm0-6c-.8.2-3.3 1.3-4 1l-6-4a.9.9 0 0 1-1 0l2-2h1c1.6-1.4 6.6 3.5 8 4Z"/><path fill="#ededee" d="M595.5 316.4v27l-146-95v-115l120 78v5l-115-74v5l115 74v78Zm-57-39c31-11.8-3.2-82.8-32-78-30.7 12.7 2.9 82.3 32 78Z"/><path fill="#ededee" d="M595.5 228.4v88l-26-17v-78l21 14v-5l-21-14v-5Z"/><path fill="#616264" d="M584.5 557.4c1.2-.6 3.5-3.1 5-2l6 4v1a.9.9 0 0 1-1 0l-2 2a2 2 0 0 1-2-1l-6-3a.9.9 0 0 1 0-1Zm4-21 4-2v2c-1.2.5-4.8 1.1-4 3l6 3v1h-1c-1.4-1.4-3.9-1.8-5 0v-2a1.7 1.7 0 0 0 1 0v-1l-4-2v-1Z"/><path fill="#616264" d="M579.5 533.4c1-1.6 4.9-2.4 6-4h2c.9.6 5.5 3.1 6 4-1.7 1.9-5.7 3.2-8 4l-5-4a.9.9 0 0 1-1 0Z"/><path fill="#616264" d="m586.5 527.4 6 4v1l-5-3h-2l-1 1v-1a3.2 3.2 0 0 0 1-1l-1-1v-1l6-3v1c-.9.6-3.5 2.2-4 3Z"/><path fill="#616264" d="M591.5 522.4c-1.3 1.7-5.2 2.9-7 4l-6-4c-1-1 0-1 1-2l4-2h2l3 1Zm-1 30c-1 .9-2.5 3.1-4 2l-6-4v-1c5.2-2.4 5.5-.4 10 2Z"/><path fill="#f7fcfe" d="M590.5 230.4v5l-21-14v-5Z"/><path fill="#616264" d="M590.5 561.4v1l-6-4Zm-1-20a1.7 1.7 0 0 1-1 0l-5 3h-2l-6-4c.5-.8 3.1-2.5 4-3s3.3-.8 4-1l2 2 4 2Z"/><path fill="#616264" d="M584.5 546.4a1.9 1.9 0 0 0 1 1v1c-1.3-.8-3.7.8-5 1v1c-.8-.3-3.3.8-4 1v2l-3-2c1.5 1.1 3.1-1.1 4-2a.9.9 0 0 0 1 0v-1l-6-4c-1.5-1.1-3.9 1.4-5 2v-1c.9-.6 5.5-3 6-4a1.7 1.7 0 0 0 1 0v-1h-1v-1l6-3v1h1c-1 .5-4.5 2-5 3a.9.9 0 0 0 1 0l5 4h3l4-3v2l-3 1Zm-13-18 6 3v1c-1.2-.5-3.8-1.3-5-1l-1 1v-2a1.7 1.7 0 0 0 1 0v-1l-4-2v-1a38.8 38.8 0 0 0 7-3 1.7 1.7 0 0 0 1 0v-1l-1-1v-1h2c.9-.5 5.6-1.8 6-3v-1h-1v-1l6 3v1c-4.3-1.8-5.2-1-9 1-1 1-2 1-1 2l6 4v1l-5-3h-3c-1.1.8-5.8 2-5 4Zm16-18a1.7 1.7 0 0 1-1 0l-4 3h-3l-5-4a.9.9 0 0 1-1 0c1.4-1.8 6.1-2.7 8-4 .4.9 5.1 3.4 6 4Zm0-7a.9.9 0 0 1-1 0c-1 .9-2.5 3.1-4 2s-7.3-3.8-6-5a7.5 7.5 0 0 0 3-2c.7-.7 6.3 3.8 7 4Z"/><path fill="#616264" d="M586.5 554.4a1.7 1.7 0 0 1 0 1c-6 2.6-5.5.1-10-3v-1c.7-.2 3.2-1.3 4-1Zm-17-40c.9-.6 4.6-1.9 5-3l-1-1v-1a.9.9 0 0 0 1 0l5 4h3l4-3v2c-1 .3-3.5 1-4 2v1l-5-3c-2.3.8-6.3 2.1-8 4l6 4v1l-5-3h-2l-1 1v-1a3.2 3.2 0 0 0 1-1v-1h-2l1-1v-1Zm11 19 5 4v1l-2-2c-.7.2-3.3 1.2-4 1v-1a3.2 3.2 0 0 0 1-1l-3-3v-1c1.5.5 5.6-1.5 7-2v1l-3 2c-1 0-2 0-1 1Z"/><path fill="#616264" d="M585.5 528.4c-.4 1.2-5.1 2.5-6 3s-6.6-2.4-8-3 3.9-3.2 5-4h3l4 3h1Zm-16-12c1.7-1.9 5.7-3.2 8-4l5 3v1l1 1a1.7 1.7 0 0 1-1 0l-5 3h-2Zm4-9c.9-.6 4.6-1.9 5-3v-1l-2-1v-1l6 4v1l-1-1c-1.9 1.3-6.6 2.2-8 4v1l-2-2v-1Zm8 49v1l-5-4v-1Zm-14-21c-1-1 0-1 1-2s3.4-1 4-2 3.8.5 5 1l3 3c-.4 1.1-4.2 2.4-5 3s-6.6-2.4-8-3Z"/><path fill="#616264" d="M565.5 503.4c.5-1 3-1.7 4-2l1-1c2.5-.4 5.8 2.1 8 3v1c-.4 1.1-4.2 2.4-5 3s-6.6-2.4-8-3a.9.9 0 0 1 0-1Zm2 43c1.2-.6 3.5-3.1 5-2l6 4v1a.9.9 0 0 1-1 0c-1 .9-2.5 3.1-4 2s-7.2-3.8-6-5Zm11-49c0 1.2-2.3 1.4-3 2s-6.7-3.5-8-4v-1c.6-.3 2.2-1.3 3-1 1.6-1.4 6.6 3.5 8 4Z"/><path fill="#616264" d="m575.5 499.4 2-1v1h1l-2 1a.9.9 0 0 0 0 1v1l-3-2h-3l-1 1v-2a1.7 1.7 0 0 0 1 0v-1l-3-2v-1c1.3.5 6.3 5.4 8 4Zm-12 23c-1-1 0-1 1-1s3.4-2.2 4-3h2c.9.6 5.5 3.1 6 4-1.6 1.9-5.7 3.2-8 4Zm13 30Zm-15-41v-1c.9-1.6 4-1.4 5-3s3.8.5 5 1 2.3 2.4 3 3-4.2 2.4-5 3-6.6-2.4-8-3Zm-2 30v-1h1c.9-.5 4.5-2 5-3h3l4 3h1l1 1a1.7 1.7 0 0 1-1 0c-1.4 1.9-6.2 2.7-8 4Zm14 9v1l-6-4Z"/><path fill="#616264" d="m567.5 535.4 6 3v1l-1 1-4-3h-3l-1 1v-2a1.7 1.7 0 0 0 1 0v-1l-1-1v-1h3l4-3v2c-1 .4-5.7 1.5-4 3Z"/><path fill="#616264" d="M572.5 530.4a1.7 1.7 0 0 1-1 0l-4 3h-3l-6-4c.5-.8 3.2-2.5 4-3s3.3-.8 4-1l2 2 4 2Zm-7-28 4-3v2c-1.2.5-4.8 1.1-4 3l6 3v1c-1.2-.5-3.7-1.3-5-1l-1 1v-2a1.7 1.7 0 0 0 1 0v-1l-4-2v-1Z"/><path fill="#616264" d="M570.5 499.4a1.7 1.7 0 0 1-1 0l-4 3h-3l-5-4a.9.9 0 0 1-1 0c.5-.9 4.1-2.5 5-3s2.3-.7 3-1l6 4Zm-1-7c-1.3.2-3.8 1.8-5 1l-6-4 2-2h1c1.6-1.4 6.6 3.5 8 4Z"/><path fill="#f7fcfe" d="M569.5 216.4v5l-115-74v-5Z"/><path fill="#616264" d="M562.5 493.4h-1l-3-2v-2l6 4c1.2.8 3.7-.8 5-1v1l-2 1v2l-3-2-2 1h-2v-1a3.2 3.2 0 0 0 2-1Zm1 29 5 4v1l-2-2c-.7.2-3.3 1.2-4 1v-1a3.2 3.2 0 0 0 1-1l-3-3v-1c1.5.5 5.6-1.5 7-2v1l-3 2c-1 0-2 0-1 1Z"/><path fill="#616264" d="M568.5 517.4c-.4 1.2-5.1 2.5-6 3s-6.6-2.4-8-3 3-3.1 4-4h4l4 3h1Zm-1 29a.9.9 0 0 0 0 1l-2-1v-1l2-1Z"/><path fill="#616264" d="M552.5 503.4c.9-.6 4.6-1.9 5-3l-3-3v-1h2l4-2v1h1c-1 .5-4.5 2-5 3a.9.9 0 0 0 1 0l5 4v1l-2-2c-1.9 1.3-6.6 2.2-8 4l6 4h3v2l6 3v1l-1 1-4-3h-4v-1a3.2 3.2 0 0 0 1-1l-6-4h-2l-4 3c-4.9-.4 4.8 4.5 5 5v1l-3-2-2 1h-2v-1a3.2 3.2 0 0 0 1-1v-1l-3-2v-1h3c.9-.6 4.6-1.9 5-3v-1h-2a7.5 7.5 0 0 1 3-2Z"/><path fill="#616264" d="M566.5 506.4c-.4 1.1-4.1 2.4-5 3h-3l-6-4c1.5-1.8 6.1-2.7 8-4l2 2 4 2Zm-1 30a1.7 1.7 0 0 1-1 0l-5 3h-3c-.7-.7-8.2-4-8-5s5.6-3.2 7-4h3c.8.6 6.5 4.2 7 5Z"/><path fill="#616264" d="M565.5 508.4c-1 .4-3.6.9-4 2v-1l4-2Zm0 37v1l-6-4v-1Zm-7-16 6 4v1l-7-4h-3c-.9.6-5.5 3.1-6 4a.9.9 0 0 0 1 1l-3-2c.6.7 7.4-3.8 8-4a.9.9 0 0 0 1 0c-.3-.7-7.3-5.4-8-6v-1h3l4-2v1c-8.9 2.5-1.7 3.8 2 6h2l4-2v1h1c-1 .5-4.5 2-5 3Z"/><path fill="#616264" d="m559.5 539.4 5-3v2l-4 2h-1v2l-3-2v-1Zm4-15c-.4 1.1-4.2 2.4-5 3s-6.6-2.4-8-3 0-1 1-2 3.4-1 4-2c4.1-.5 5.4 1.3 8 4Zm-1-31c-.4 1.2-5.1 2.5-6 3s-6.6-2.4-8-3l1-2c1-.3 3.5-1 4-2h3a21.5 21.5 0 0 0 5 4Z"/><path fill="#adafb2" d="M561.5 595.4v9a6.8 6.8 0 0 1-7 0v-9a6.8 6.8 0 0 0 7 0Z"/><path fill="#616264" d="m560.5 486.4-3 2a1.9 1.9 0 0 1-1-1c-.8-.7-7.1-2.9-7-4h1l2-2c1.6-1.4 6.6 3.5 8 4Z"/><path fill="#616264" d="M558.5 489.4v2l-2-2h-3l-1 1v-2a1.7 1.7 0 0 0 1 0v-1l-4-2h1v-1l6 3a1.9 1.9 0 0 0 1 1l3-2v1Zm-3 30v-1l-4-2h1v-1l6-3v1c-1 .9-4.7 2.3-4 4l6 3v1l-2-1h-3l-1 1v-1a3.2 3.2 0 0 0 1-1Z"/><path fill="#616264" d="M559.5 512.4a1.7 1.7 0 0 1-1 0l-6 3c-.2-.5-9.9-5.4-5-5l6-3 6 4Zm-2-12c-1.3 1.7-5.2 2.9-7 4-3.3-2.9-11.1-4.5-2-7l1-1c1.2-.3 3.8.5 5 1Zm-1 39v1l-7-5Zm-15-21c.5-.9 4.1-2.5 5-3s2.4-.7 3-1l2 2 4 2v1a1.7 1.7 0 0 1-1 0l-4 3h-3l-5-4a.9.9 0 0 1-1 0Zm-35-11v-1c1.9-.7 7.4-6 9-3 7.3 4 17.1 10.3 24 15 4.3 2.8 12.2 7.5 16 11a.9.9 0 0 1-1 0c-1.5.4-7.4 5.3-9 4Z"/><path fill="#adafb2" d="M554.5 595.4v9l-149-97v-8l65 42v2l23 15v-2Z"/><path fill="#616264" d="m548.5 493.4 6 3v1c-1.2-.5-3.7-1.3-5-1l-1 1v-1a3.2 3.2 0 0 0 1-1v-1l-4-2v-1h3l4-3v2l-3 1Z"/><path fill="#616264" d="M539.5 487.4c1.5-1.8 6.1-2.7 8-4l2 2 4 2v1a1.7 1.7 0 0 1-1 0l-4 3h-3l-5-4a.9.9 0 0 1-1 0Zm12-7a.9.9 0 0 1 0 1c-1.1.5-2.8 1.8-4 1s-7.2-3.8-6-5l2-1c1.6-1.4 6.6 3.5 8 4Z"/><path fill="#616264" d="m540.5 487.4 5 4v1l-2-2-2 1h-2v-1a3.2 3.2 0 0 0 1-1l-3-3v-1h2c.9-.6 4.6-1.9 5-3l-3-3v-1l6 4c1.2.8 2.9-.5 4-1v1l-1 1h-1a.9.9 0 0 0 1 1v1h-1l-2-2c-1.9 1.3-6.5 2.2-8 4a.9.9 0 0 0 1 0Zm11 19c-.4 1.1-4.1 2.4-5 3h-3l-6-3c-.6-.8.6-1.5 1-2s3.5-1 4-2h3l4 3h2Z"/><path fill="#e0ecbb" d="m550.5 256.4-14-9c.9-11.7-13.2-34.4-25-27l-9-19c25.3-11.8 48.8 35.3 48 55Z"/><path fill="#ffe9b8" d="m536.5 247.4 14 9c.8 25-20.8 26.7-35 11s-31.8-50-13-66l9 19c-7.8 7.1.6 26 7 32 8 8 18 8 18-5Z"/><path fill="#616264" d="M542.5 501.4v-1l-1-1v-1h3l4-2v1c-9.1 2.5-1.3 4.1 2 7v1h-1l-4-3h-3l-1 1v-2a1.7 1.7 0 0 0 1 0Z"/><path fill="#616264" d="M549.5 495.4c-.4 1.1-4.1 2.4-5 3h-3l-6-4c.5-.8 3.2-2.5 4-3s3.3-.8 4-1l2 2 4 2Zm-8 23 6 4v1l-9-5 1-1v-1h2l4-2v1h1c-1 .5-4.5 2-5 3Z"/><path fill="#adafb2" d="m547.5 543.4-49-31Zm0 0-33 17-48-31 32-17Z"/><path fill="#616264" d="M546.5 513.4c-.4 1.1-4.1 2.4-5 3s-6.6-2.4-8-3l1-2c1-.3 3.5-1 4-2 4.1-.5 5.4 1.3 8 4Zm0 20-40-25v-1Zm-1-51c-.4 1.2-5.1 2.5-6 3s-6.6-2.4-8-3l1-2c1-.3 3.5-1 4-2 4.1-.5 5.4 1.3 8 4Z"/><path fill="#616264" d="m537.5 506.4 6 3v1l-2-1h-3l-1 1v-1a3.2 3.2 0 0 0 1-1v-1l-4-2h1v-1l6-3v2c-1.2.5-4.8 1.1-4 3Zm6-32c0 1.2-2.3 1.4-3 2s-6.7-3.5-8-4v-1l2-1h2l6 4Z"/><path fill="#616264" d="M542.5 501.4a1.7 1.7 0 0 1-1 0l-6 3c-.2-.5-9.9-5.4-5-5l3-2c.7.3 2.4-.7 3-1s5.5 3.1 6 4Z"/><path fill="#616264" d="m535.5 494.4 6 4v1l-5-3c-.6.3-2.3 1.3-3 1v-1a3.2 3.2 0 0 0 1-1v-1h-1v-1l6-3v1a24.6 24.6 0 0 0-4 3Z"/><path fill="#616264" d="M540.5 489.4c-1.3 1.7-5.2 2.9-7 4-3.3-2.9-11.1-4.5-2-7l1-1c1.3-.3 3.8.5 5 1l3 3Zm-7 22 4-3v2c-8.9 2.5-1.6 3.8 2 6v2l-9-6v-1Z"/><path fill="#616264" d="M538.5 508.4c-.4 1.1-4.1 2.4-5 3h-3l-5-4a.9.9 0 0 1-1 0c1.5-1.8 6.1-2.7 8-4l2 2 4 2Zm-6-24v-1l-4-2v-1h3l4-3v2l-3 1-1 2 6 3v1c-1.2-.5-3.7-1.3-5-1l-1 1v-1a3.2 3.2 0 0 0 1-1Z"/><path fill="#616264" d="M536.5 477.4a1.7 1.7 0 0 1-1 0l-4 3h-3l-5-4c1.4-1.7 5.2-2.9 7-4 1.4.5 4.8 3.1 6 4Zm-7 23 6 4v1h-1l-2-2c-1.9 1.3-6.5 2.2-8 4a.9.9 0 0 0 1 0l5 4v1l-8-5v-1c1.8-1.3 6.6-2.1 8-4h-1l-3-2v-2h3l4-2v1l-3 2c-1 0-2 0-1 1Z"/><path fill="#616264" d="m520.5 495.4 1-2c1.4-.5 5.5-2.5 7-2l5 3h1v1c-.4 1.1-4.1 2.4-5 3h-3Zm14-26a.9.9 0 0 1-1 0c-1.1.5-2.8 1.8-4 1l-6-4v-1h2c2.1-3.5 6.8 2.1 9 3Z"/><path fill="#adafb2" d="m531.5 455.4 3-2-2 2Z"/><path fill="#616264" d="M532.5 472.4v1l-2-1c-1.8 1.1-5.6 2.3-7 4v1h-1l-2-2v-1h2c.9-.5 5.6-1.8 6-3h-1l-4-3v-2l6 4c1.2.8 2.9-.5 4-1v1l-1 1Z"/><path fill="#e2e3e4" d="M511.5 220.4c11.8-7.4 25.9 15.3 25 27s-9 13-18 5c-6.4-6-14.8-24.9-7-32Z"/><path fill="#616264" d="M520.5 495.4a.9.9 0 0 0 1 0l5 3v2l-2-2h-3l-1 1v-1a3.2 3.2 0 0 0 1-1v-1l-3-2v-1l6-3a1.7 1.7 0 0 0 1 0v-1l-1-1v-1h3l4-2v1l-3 2c-4.9-.4 4.8 4.5 5 5v1l-5-3c-1.5-.5-5.7 1.5-7 2Z"/><path fill="#616264" d="M518.5 483.4c1.5-1.8 6.1-2.7 8-4l2 2 4 2v1c-.4 1.1-4.1 2.4-5 3h-3Zm-2 19 1-2c1-.3 3.5-1 4-2h3a21.5 21.5 0 0 0 5 4c-1.3 1.7-5.2 2.9-7 4Z"/><path fill="#616264" d="M518.5 483.4a.9.9 0 0 0 1 0l5 4v1l-4-3c-.7.2-3.3 1.2-4 1v-1a3.2 3.2 0 0 0 1-1v-1h-1v-1c1.8-1.1 5.7-2.3 7-4l-1-1v-1a.9.9 0 0 0 1 0l5 4v1l-2-2c-1.9 1.3-6.5 2.2-8 4Zm-4-12 1-2c1-.3 3.5-1 4-2h3c.5.8 4.2 3.4 5 4h1c-.3 1.2-5.1 2.5-6 3s-6.6-2.4-8-3Z"/><path fill="#616264" d="M512.5 489.4c-1-1 0-1 1-1l3-2c.7.3 2.4-.7 3-1s5.5 3.1 6 4v1a1.7 1.7 0 0 1-1 0l-6 3Zm13-26c-1.2.6-3.5 3.1-5 2s-7.2-3.8-6-5h1l2-2a2 2 0 0 1 2 1l6 3Z"/><path fill="#616264" d="m522.5 465.4 3-2v2h-2v3l-1-1h-3l-1 1v-2a1.7 1.7 0 0 0 1 0v-1l-5-3v-1c1.4.5 6.4 5.4 8 4Zm-12 13c-1-1 0-1 1-2s3.5-1 4-2 3.8.5 5 1 2.3 2.4 3 3c-1.3 1.7-5.2 2.9-7 4Zm-2 18 5 4h3l4-2v1l-3 1-1 2 6 4v1l-7-5c-1.2-.8-2.9.5-4 1v-1a3.2 3.2 0 0 0 1-1v-1l-7-4v-1c1.3-.8 5.6-2.4 7-3v1c-.9.5-4.5 2-5 3a.9.9 0 0 0 1 0Z"/><path fill="#616264" d="M507.5 496.4c.5-.9 4.1-2.5 5-3s2.4-.7 3-1l2 2 4 2v1c-.4 1.1-4.1 2.4-5 3h-3l-5-4a.9.9 0 0 1-1 0Zm-1-31c1.4-1.7 5.2-2.9 7-4 .5.9 5.1 3.4 6 4v1a1.7 1.7 0 0 1-1 0l-4 3h-3Z"/><path fill="#adafb2" d="m515.5 452.4 3 4-51 26-5-3Z"/><path fill="#616264" d="M513.5 491.4h-1l-3-2v-2h3l4-2v1l-3 2c-4.9-.4 4.8 4.5 5 5v1l-3-2c-.6.3-2.3 1.3-3 1v-1a3.2 3.2 0 0 0 1-1Z"/><path fill="#616264" d="m503.5 483.4 1-1 4-1 1-1h2l4 3h2v1c-.4 1.1-4.1 2.4-5 3h-3l-6-3a.9.9 0 0 1 0-1Z"/><path fill="#616264" d="m510.5 476.4 4-2v1c-8.9 2.5-1.6 3.8 2 6v1l-1 1-4-3h-2l-1 1-1-1v-1a.9.9 0 0 0 1 0v-1l-1-1v-1a3.2 3.2 0 0 0 3 0Z"/><path fill="#616264" d="M515.5 473.4c-.3 1.1-4.2 2.4-5 3-2.4 2.1-10-5.3-12-6a.9.9 0 0 1-1-1c1.3-1.3 6.2-4.4 8-3s10 6.5 10 7Zm-2 18c-1.4 1.9-6.2 2.7-8 4l-6-4 1-2c1-.3 3.5-1 4-2h3a21.5 21.5 0 0 0 5 4Zm-1 10c-.4 1-5.2 3.4-6 4h-3l-7-5a.9.9 0 0 1-1 0 97 97 0 0 0 7-4h3Z"/><path fill="#616264" d="m506.5 505.4 5-3v1l-5 3v2l-3-2v-1Zm-3-21 6 3v1l-2-1h-3l-1 1v-1c1.9-.1.3-2.2 0-3l-3-1v-2c1.9 2.9 6.1-1.1 8-2v2l-4 1c-.4.5-1.6 1.2-1 2Z"/><path fill="#616264" d="M508.5 479.4c-1.9.8-5.8 4.6-8 3l-11-7c-1-1 0-2 1-2s4.9-4.8 7-2h1c.6.5 10 6.4 10 7Z"/><path fill="#616264" d="M507.5 476.4v1l-9-6v-1Z"/><path fill="#ededee" d="M506.5 320.4v69l-88-57v-70Zm-5 28v-2l-8-5v2Zm0-21v-4l-78-50v4Zm-2 41v-3l-21-13v2Zm0-14v-2l-15-10v2Zm-4 4v-2l-9-6v2Zm-6-17v-3l-26-17v3Zm-7 9v-3l-23-14v2Zm-2-8v-3l-6-3v2Zm-6 10v-2l-15-10v2Zm-4-16v-3l-5-3v2Zm-9-7v-2l-24-16v3Zm-2-8v-2l-9-6v2Zm-2 20v-2l-9-7v3Zm-2-8v-3l-11-7v2Zm-9-20v-3l-23-14v2Zm-2 19v-2l-21-13v2Zm-4-9v-2l-17-11v2Zm-7-12v-2l-10-6v2Z"/><path fill="#616264" d="M493.5 489.4v-1c-1.4-.6-6.4-3.7-8-3l-1 1v-2h1a1.7 1.7 0 0 0 0-1l-4-2v-2l14 9c2.1 2.6 5.8.1 8-1v1c-.8.6-3.4 2.2-4 3l6 4v1h-3c-.9.6-5.5 3.1-6 4v1l-3-2v-1h3c.8-.7 5.6-3 6-4l-6-4h-3l-1 1v-1Z"/><path fill="#616264" d="M504.5 486.4a1 1 0 0 1-1 1c-2.2 1.1-5.9 3.6-8 1-.3-.4-15.6-9.5-15-10l1-1c2.2-.9 5.6-3.7 8-2v1c2 1.2 11.7 7.9 14 8Zm-1 19v1l-7-5v-1Zm-16-11c1-1.6 4.9-2.4 6-4h3l6 4a1.7 1.7 0 0 1-2 1l-5 3c-1.6.7-6.6-2.4-8-3a.9.9 0 0 1 0-1Z"/><path fill="#fff" d="M501.5 346.4v2l-8-5v-2Z"/><path fill="#f7fcfe" d="M501.5 323.4v4l-78-50v-4Z"/><path fill="#616264" d="M500.5 481.4v2l-11-7v-1Z"/><path fill="#adafb2" d="m498.5 512.4-32 17h-1Zm-4 42v1l-19-12v-2Z"/><path fill="#adafb2" d="m494.5 555.4-1 1v2l-23-15h5Z"/><path fill="#616264" d="M493.5 489.4c-1.7 2-6.7 3-9 4l-6-4 1-1h1c.9-.5 4.5-2 5-3s6.6 2.4 8 3Zm0 9v1l-6-4Z"/><path fill="#616264" d="m487.5 492.4 5-2v1c-.9.5-4.6 1.9-5 3v1l-3-1v-1Z"/><path fill="#fff" d="M489.5 339.4v2l-26-17v-3Z"/><path fill="#616264" d="M470.5 484.4v-1c1.7-2 6.6-3 9-4 1.4.5 4.8 3.1 6 4a1.7 1.7 0 0 1 0 1h-1l-5 3h-3Zm14 9v1l-6-4v-1Z"/><path fill="#616264" d="m479.5 487.4 5-3v2l-4 2h-1l-1 1v1l-2-2v-1Z"/><path fill="#ffe9b8" d="M453.5 708.4c-6.1 7-15.5 7.6-24 9-2.1-2.4-6.1-2-9-2-4.4-.6-8.9-1.2-13-3a4.7 4.7 0 0 1-1-3l1-1-1-2a15 15 0 0 1-3 0l1-2c1.1-.5 5-1.9 2-3a28.3 28.3 0 0 0-3-3h-1l-4-3-4 1c-3.4-13.1-7-3-14-7a1.7 1.7 0 0 1-1 0 6.3 6.3 0 0 0 1-3c-.9-.7-1.5-2.5-3-2a1.7 1.7 0 0 1 0 1l-1-1c1.8-6.5 2.9-8.4 0-15-1.9-11.8 12.1-15 21-12 13.7 1.3 17.1 16.3 33 14a.9.9 0 0 1 0 1c-1 .2-2-.1-3 0a4.7 4.7 0 0 0 1 1c4.2.5 9-1 13-2 1.6-.1 11.9.6 13-1a2.4 2.4 0 0 1 1 1c3.4.6 4.9-.5 7-3 1.5-1 4.1-2.4 5-4v-2a3 3 0 0 1 2-1c2.6-2.1 4.2-5.2 6-8a15 15 0 0 1 0 3l1-1c-.1 1.5 1 5.2 3 2a41.7 41.7 0 0 1 0 5c-.6 1-2.5 1.5-2 3s-1 4.1-2 6v1l-2 1c-2.5 4.2.3 12.6 1 17-.6 6.6-4.6 13.8 0 20l-3-3 2 6a7.5 7.5 0 0 0 2 1 26.7 26.7 0 0 1-4 0 7.5 7.5 0 0 0 1 2v1c2.9 3.1-1 5-1 8s.2 3.3 0 5-2.6 5.3-5 5-4.3 0-6 0v-1h-2a2.4 2.4 0 0 0-1-1h-1v-1c2.1-1 3.4-1.3 3-4a4.7 4.7 0 0 1 1-1c.8-4.6-1.2-9.8-3-14-1.1-1.1-3.7-3.4-4-5Zm-65-35a.9.9 0 0 0 0-1 .7.7 0 0 0-1-1c-1.2-.9-3.1-1.8-4 0v1c1.2 0 2.4-.2 3 1h1a.9.9 0 0 0 1 0Zm-3 3a1 1 0 0 0-2 0 1 1 0 0 0 2 0Z"/><path fill="#fffef2" d="M479.5 657.4c-2 3.2-3.1-.5-3-2l-1 1a15 15 0 0 0 0-3l1-2a16.9 16.9 0 0 1 3 6Z"/><path fill="#616264" d="M476.5 487.4v1l-6-4Z"/><path fill="#adafb2" d="M475.5 541.4v2h-5v-2Z"/><path fill="#fffef2" d="M467.5 735.4c-.7 1.4-.8 4.7-3 4a1.7 1.7 0 0 1 0-1c-.8 2.1-4.3 3.1-4 0-1.1 1.6-4.8 1.5-4-1-1.4-.5-1-1.9-1-3l1-1h1a2.4 2.4 0 0 1 1 1h2l1 1h5a.9.9 0 0 0 1 0Z"/><path fill="#ffe9b8" d="M452.5 709.4c-1.3 3.3.1 7.6-3 10a6.7 6.7 0 0 0 0 2l-3 3 1-2c-3.2-1.5-2.3 3-4 4s-3.7 3.5-6 4c.4-4-5.5 0-5-4l-4-1h2l2-1a1.6 1.6 0 0 0 2-1c.6-3.1 2.7-1.4 2-7a28.1 28.1 0 0 0 16-7Z"/><path fill="#fffef2" d="M436.5 728.4a2 2 0 0 1 1 2 7.5 7.5 0 0 1-2 1 2.4 2.4 0 0 1-1-1 13.4 13.4 0 0 0-2 0 4.7 4.7 0 0 1-1 1c-2.1 0-5.2.6-6-2-.7-2.1 1.2-3.5 3-4l4 1c-.4 2.7 2.4 1.9 4 2Z"/><path fill="#ffe9b8" d="m394.5 696.4 4-1 4 3h1a28.3 28.3 0 0 1 3 3c2.9 1.1-.9 2.4-2 3l-1 2 3 1 1 1-1 1a4.7 4.7 0 0 0 1 3c4.1 1.8 8.6 2.4 13 3 2.9 0 6.9-.4 9 2h-9a11.8 11.8 0 0 1 1 3l1 1c.3 2.1.9 4.6-2 5 .7-3.7-.1-4.4-4-9-.7-.2-3.2-1.2-4-1-8.4.1-14.2-13-23-9l2-2c-.2-1.8-2.9-.7-4-1s-.4-2.2-2-2-3.2-.1-4 0c.7-2.1 3.1-3.9 5-5s5.7.7 8-1Z"/><path fill="#e8f1d1" d="M137.6 539.4v27h-2c-.5-22.7 2.1-113-4-129h2a550 550 0 0 1 2 18 1103.1 1103.1 0 0 1 16-217h1a122.7 122.7 0 0 1-2 16 133.5 133.5 0 0 1 31-56c3.6-7.8 10.5-19.2 11-28h1c-.2 7-6 17.3-8 24 27.9-29.9 86.5-53.9 127.9-74l15-13c-.9 2.4-9.1 10.1-11 12 20-10 41-22 59-37l5-10a92 92 0 0 1 5-13c0 6-4.8 15.5-7 21 22.3-15.8 45.9-54.5 48-80-.2 30.3-15.4 52.1-36 72-37.9 39-91.6 55.9-138.9 80h5c-116.3 46.9-113.1 123.9-118 233a711.4 711.4 0 0 1 19-44l1 1a229.9 229.9 0 0 0-20 57c.2 20.9-1.2 76.9-1 98l1-10 1 1a310.5 310.5 0 0 0-3 51Z"/><path fill="#ffe9b8" d="M412.5 716.4h1l-1 5c-5.1 3.8-2 11.7-6 16-2.6-.1-4.5-.3-4 3l-1-3h-1a.9.9 0 0 0-1 0h-2a.9.9 0 0 0-1-1 .9.9 0 0 0-1 0v1a.9.9 0 0 1-1 0v-1h-2a1.7 1.7 0 0 1 0-1 6.7 6.7 0 0 1 2 0l1-1c1.7.5 2.4-1.9 3-3s1.6-2.9 0-4c0-2.3.2-4.7 0-7s-2.3-4.6-2-7h-1c-.5 1.2-1.9 1.2-3 1a3.7 3.7 0 0 0 3-1 3.4 3.4 0 0 0 0-2c1-1 1-2-1-4 6.7 1.4 11.4 7.5 18 9Z"/><path fill="#adafb2" d="M405.5 499.4v8c-3.5.2-1.5-8.2-2-10a3.1 3.1 0 0 0 2 2Z"/><path fill="#e8f1d1" d="M401.5 40.4c1.6 7.6 1.6 9.6-7 9-1.2-.5-3.6-1.3-5-1v1c2.5 3.1 7.8 2.5 11 1-3.1 5.9-9 6.1-13 1h-1c1.3 2.5.9 5.4 0 8a23.7 23.7 0 0 0-1-7c-1.9 4.2-5.8 7.8-10 4 1.1.2 2.1-.5 3-1a6.7 6.7 0 0 0 2 0 5.4 5.4 0 0 0 1-2c2.3-.8.4-4.7-1-2-1.7.5-2.7 1.9-4 3h-1l-1 1c-2.6-.9-6.2-2.7-6-6h2c2.4 3.4 15-2.5 8-4l-1-2h1l1-1v-1a4.1 4.1 0 0 0-3-1l1-2c1.3.2 3.7-.3 3-2a.9.9 0 0 0-1 0c-1.9-1.7-5.1-.3-7-2s-3.5-6.2 0-6c1.6 1.5 3.6 4.1 6 4a.9.9 0 0 0 1 0 .9.9 0 0 0-1-1c-.4-2.3-2.9-3.3-5-3l-1-1a23.2 23.2 0 0 1 4-7l5 1 1 1h1a4.7 4.7 0 0 0-1 1v1c-.7 1.2-1.4 2.6-1 4 2.1.4 3.2-4.3 3-6a4.8 4.8 0 0 1 3 2c2.6 1.4 0 4.5-2 5a12.4 12.4 0 0 0-1 2 4.7 4.7 0 0 0-1 1l1 1c3.2-.9 5.1-4.9 5-8 2.8 2.1 6.7 3.8 2 7-1.3 1.8-9.8 7.7-3 7 3.6-2.2 3.8-7.7 8-9 2 2.2 4.3 4.8 4 8-.7.3-4.2 2.4-5 2l-4 2c-1.7.1-3.2 2.4-1 3s3.6-1.8 5-3h1c1.1-1.2 3.3-2.6 5-2Z"/><path fill="#fff" d="m401.5 737.4 1 3a1.7 1.7 0 0 1-2 1c-.9.3-2-.3-3 0s-4.4.8-5-1a1.7 1.7 0 0 0-1 0c.1-1.3-.2-2.7 0-4s2.3 0 3 0v1a.9.9 0 0 0 1 0v-1a.9.9 0 0 1 1 0 .9.9 0 0 1 1 1c1 .2 2.1-.2 3 0Z"/><path fill="#fffdea" d="m391.5 705.4-2 2c-2.3-.5-7.6 1.4-8-2-3.3.6.6-7.7 3-3 4.7-.5 1.7 2.1 5 2a.9.9 0 0 1 1 0 .9.9 0 0 1 1 1Z"/><path fill="#ffe9b8" d="M388.5 672.4c.5.7-.2 1.5-1 1h-1c-.6-1.2-1.8-1-3-1v-1c.9-1.8 2.8-.9 4 0a.7.7 0 0 1 1 1Z"/><path fill="#614d47" d="M385.5 675.4c1.2.6.1 2.4-1 1.7s-.1-2.4 1-1.7Z"/><path fill="#fffdea" d="M362.5 527.4a14.9 14.9 0 0 1-2-8c5.2-.2 10.8-1.8 16 0h5l-2 9-2 3h-13l-1-3h-1Z"/><path fill="#614d47" d="M380.5 686.4a6.3 6.3 0 0 1-1 3l-4-3a12.4 12.4 0 0 1 1-2l1 1a1.7 1.7 0 0 0 0-1c1.5-.5 2.1 1.3 3 2Z"/><path fill="#e0ecbb" d="M378.5 43.4v2l-2 1h-3a5.2 5.2 0 0 1-4 1 .9.9 0 0 1-1 0v-7c3.2 1.4 6.3 3.6 10 3Z"/><path fill="#ffe9b8" d="M376.5 669.4c1.4 3.4 2.8 7.5 1 11h-1c-2.4-1.8-.2-5.4-1-8s-1-3 1-7a17.8 17.8 0 0 0 0 4Z"/><path fill="#e0ecbb" d="m377.5 38.4-1 2c-3.3.4-10.6-.2-7-5v-1c.5 1 3 1.7 4 2s2.5 2.2 4 2Z"/><path fill="#fffdea" d="M362.5 528.4c-2 .3-3.4-1.2-4-3h1l1 1h1v1h1Z"/><path fill="#f7fcfe" d="M362.5 527.4h-1v-1h-1l-1-1 1-1a.9.9 0 0 0-1-1 4.7 4.7 0 0 0-1-1v-1h2a18.5 18.5 0 0 0 2 6Z"/><path fill="#ffefe3" d="M355.5 529.4c.6 1.1-.9 2.4-2 2a.7.7 0 0 1-1 1c-2.6 2.7-9.5.1-13 0-.4-4.3 2.5-9 0-13a83.4 83.4 0 0 1 10 0c3 1.1 5.8 2.4 9 2v1a4.7 4.7 0 0 1 1 1 .9.9 0 0 1 1 1l-1 1a41.7 41.7 0 0 0-5 0h2c1.3.9 1.6 2.1 0 3a1.9 1.9 0 0 1-1 1Z"/><path fill="#ffefe3" d="M359.5 520.4a1.9 1.9 0 0 1-1 1c-3.2.4-6-.9-9-2h9c.8-.5 1.5.3 1 1Z"/><path fill="#e8f1d1" d="M340.5 72.4c3.5 13.1-3.8 26.2-12 36v-1c2.5-2.6 5-6.3 5-10l-1-1v1l-2 2c-2.3 4.3-9.6 3.5-11-1 3.4 0 7.6.9 10-2-1.1-7.5-16 9.6-15-9 4.2 3 9 3.7 14 3 1.7-1.4.9-4.2 1-6h1c.5-1.3-.9-2.5-2-3-4.4-3.4-12.2-3.3-8-11h2a7.5 7.5 0 0 0 4 4l3 3c1.9 2.1 6.1.1 3-2s-8.2-3.7-9-8l4-4a20.6 20.6 0 0 0 6 8c1.7-.2 1.3-2.4 0-3a24.4 24.4 0 0 0-4-5c-.1-3.7 4.3-4.8 7-6Z"/><path fill="#e0f1ed" d="M340.5 522.4c-.6 4.3-.4 8.9-2 13-1.9 1.3-8.7 1-11 1 2.1-5.4 3.4-11.5 1-17h11a5.4 5.4 0 0 1 1 3Z"/><path fill="#e0f1ed" d="M294.5 539.4c3.4 10 4.7 19.3 4 28-10.6-1.6-19.2 5.3-29 8-4.4 1.4-10.7 3.8-14.9 1a1.7 1.7 0 0 1 0-1c-4.2-7-1.4-16.1-3-24s-10.8-29.8-12-39-.5-23.3 2-33c1.2-5.7-.3-13.9 3-19 3.9-9.6 6.6-16.5 19.9-16 6.3 4.5 13.7 5.7 21 7 4.8 5.5 13.2 11.2 16 18 0 6.3 1 17 3 23l-1 8 1 9 1 1 2 11 13-1c1.5-.2 6.7-1.2 8-1 2.4 5.5 1.1 11.6-1 17-9.9 4.4-22.4 2.9-33 3Z"/><path fill="#e0ecbb" d="M329.5 84.4v3c-1.6-2.5-9.6.5-14-3-2.3-.3 1.5-7.4 2-9a29.6 29.6 0 0 0 12 9Z"/><path fill="#ffd68b" d="M324.5 406.4c1.8 3.4-3 6.2-6 5-1.4-.4-6.5-2.5-8-2 .4 14.1-8.3 7.8-9 19h-3a12.5 12.5 0 0 0-2-9 1.9 1.9 0 0 0-2.5-1.2c-2.9 1-6.2 2.7-6.5 6.2s-7.6 2.9-10 4c.4-2.6-.2-12.1 0-15 .8-9.8 7.8-20.8 19-18 5.6-.5 9.9 3.3 15 4a14.5 14.5 0 0 1 13 7Z"/><path fill="#464547" d="M296.5 738.4c-7.7 0-15.5-.3-23-3a116.9 116.9 0 0 1 3-12 36.8 36.8 0 0 0 7 2l1 5c7.7.8 7.3 0 7-7 1.4-.5 2.8-1.5 3-3l12 9h3c2.8 2.5 7.7-.7 10 2 1.9.7 1.3 5.6-1 5-5.8 3.9-15.1 1.4-22 2Z"/><path fill="#ffefe3" d="M311.5 436.4c-2.6-1.8-5.2.2-8 0l-1-1c-4.4-19.5 8-9.3 8-26 1.5-.5 6.6 1.6 8 2-.3 1.7-.5 14-2 15v10Zm0-9 2 1a1.9 1.9 0 0 0 1-1Zm2 8h1a13.3 13.3 0 0 0-2 0Z"/><path fill="#231f20" d="M317.5 737.4a4.7 4.7 0 0 0 1-1c-7.7 4.5-14.6 5.6-22 2 6.9-.1 14.3.8 21-1Z"/><path fill="#e8f1d1" d="M321.5 171.4c-2.8 2.4-5.9 5.6-10 5-4.9-3.4-2.8-13-7-11s.7 6.2 2 8 1 3.5 2 4l-7 3c-1.7-1.6-1.6-4.7-2-7s-1.2-6.1-1-8-4-4.6-4-1 .6 6.5 1 9 .6 2 1 3 2.5 3.1 2 4l-1 1c-13.2 2.9-5.3-11.4-9-18a1.1 1.1 0 0 0-2-1l-1 4c.6 5.3.7 11.7 4 16a18 18 0 0 1-11-1 1.7 1.7 0 0 1 0-1c-.6-4.2 1.4-9.1 3-13s1.5-7.9-3-6a27 27 0 0 0-4 18c-5.6-.6-9.7-5.4-8-11 2.2-3.5 10.2-6.4 6-11h-2a16.2 16.2 0 0 0-6 11c-4.2-2.8-1.8-9.9 1-13 1.5-.8 3.6-1 5-2h2a3.2 3.2 0 0 0 1-1c-5-3.9-11.5-1-16.9 0 26-8.6 44.8-3.8 64.9 19Z"/><path fill="#ffefe3" d="M311.5 427.4h3a1.9 1.9 0 0 1-1 1Z"/><path fill="#ffd68b" d="m312.5 436.4-1 2h-2a5.8 5.8 0 0 0-4-1v-1c2.4-1.7 4.6-.2 7 0Z"/><path fill="#e0f1ed" d="M312.5 575.4a2.3 2.3 0 0 1 0 2 28.2 28.2 0 0 0-14-10c.7-8.7-.6-18-4-28a16.3 16.3 0 0 0 10 0h6a177.8 177.8 0 0 1 1 23c.4 2.7 1.3 10.4 1 13Z"/><path fill="#79605b" d="M303.5 651.4h-1l-2 8c.3 3.7-.4 11.2-1 15l-3 14c-.8 4.4-3.6 11.7-1 16 .6 1.8-.4 4.3-1 6s1 5.3 1 8h-1c-6.4 5.2-11 5.7-20 1 2.5-5.4-.1-14.3 2-20-.5-8.5.7-26.3 1-35 1.1-4.8 2.7-9.3 3-14a5.7 5.7 0 0 0 2-6c-.9-.7-1.7-1.9-1-3-.2-12.8-2.8-30.4-5-43 4.4 1.5 12.5.5 17 0a1.9 1.9 0 0 0 1-3v-24h-14c9.5-6.4 23.1-5.6 30 4-.2 1.2.8 7.7 1 9 .4 10.3-.5 25-3 35 .2 3.5-.1 10.6-1 14-.2 5.5.4 11.9-4 16a6.7 6.7 0 0 0 0 2Z"/><path fill="#ffd68b" d="M307.5 442.4v1a4.7 4.7 0 0 0-1 1c.5 2.5-2.4 2-4 2s-5.3-2.4-6-2l-3 4a25.6 25.6 0 0 0-2-9c2-1 3-1 3-3l4-8h3l1 7 1 1h2c.1 2.1.3 4.7 2 6Z"/><path fill="#ffefe3" d="M296.5 419.4a12.5 12.5 0 0 1 2 9l-4 8-3 3a25.6 25.6 0 0 1 2 9l-1 1c-5.1-6.6-13.3-5.1-20-8h-2c2.3-4.4 5-8.5 7-13 .8-.2 7.5-2.2 8-2 3-1.7 2.2-6.3 6-7 1.3-1.2 4.2-2.2 5 0Z"/><path fill="#e0f1ed" d="m294.5 450.4 1 2a12.2 12.2 0 0 0-3 5c-7-9.5-19.1-5.8-28-13l1-6a1.7 1.7 0 0 1 0-1c1.7 2.1 4.1 4.5 7 4 1.2 1.1 6.5 1.7 8 2 5.8.1 9.6 4.3 14 7Z"/><path fill="#614d47" d="M283.5 725.4c-2.6-.7-6-.9-8-3a1.7 1.7 0 0 1-1 0 3.2 3.2 0 0 1 0-3c9 4.7 13.6 4.2 20-1h1a3.4 3.4 0 0 1 0 2 1.7 1.7 0 0 1-1 0c-1.4 3.8-7.2 5.1-11 5Z"/><path fill="#79605b" d="M276.5 598.4c-3.7-9.4-6.9-8.8-10-22 15.2-5.1 11-5.4 28-5v24a1.9 1.9 0 0 1-1 3c-4.5.5-12.5 1.5-17 0Z"/><path fill="#e0f1ed" d="m289.5 454.4 3 3v1l-7-7a24.6 24.6 0 0 1 4 3Z"/><path fill="#231f20" d="M291.5 723.4c.3 7.1.7 7.8-7 7l-1-5a13.9 13.9 0 0 0 8-2Zm-2 15v2c-5.9.5-13-.1-18-3a15 15 0 0 1 0-3 48.6 48.6 0 0 0 18 4Z"/><path fill="#f7fcfe" d="M281.5 644.4a4 4 0 0 1-1 6c-.3 4.7-1.9 9.2-3 14-.3 8.8-1.5 26.4-1 35-1 3.1-1.1 10.7-1 14s-1.9 6-1 9-.7 3.3-1 5c-1.8-1.2-5.8-1-8-1l-2-1c-4 1.5-8.8-8-10.9-10 3-5.4-1.5-12.8 3-18s2-13.9 3.9-20 2.9-12.3 7-16l3-5c.2-1.6-.3-4 2-4s4.2-3.4 5-5 1.1-2.9 2-4l3-7v5a2.3 2.3 0 0 0 0 2Z"/><path fill="#79605b" d="M258.6 625.4c-.4-3.7.5-7.3 1-11l-1-14a21.5 21.5 0 0 0-1-8l7.9 3c.1-2.8-1.9-7.4-3-10v-8l4-1c3.1 14.9 10.1 15.2 11 28 .2 7.9 2.5 24.2 4 32l-3 7c-.9 1.1-2.1 2.4-2 4s-3.8 3.5-5 5-1.8 2.4-2 4c-3 4.8-6.7 10.4-7.9 16-1.4 3.2-3.3 7.5-3 11s-1 10.5-3 14-1.6 10.6-2 16c-6.6 2-14.9 2.1-20-3 1.3-8.1 4.3-17.9 6-26a86.8 86.8 0 0 1 3-16c1.7-5.5 3.7-13.8 6-19 .8-1.2 3.8-4.3 3-6s2.8-3.3 4-5c.1-3.4 4.1-5.2 3-9a4 4 0 0 0 .9-2 12.1 12.1 0 0 0-.9-2Z"/><path fill="#464547" d="M275.5 722.4a9.4 9.4 0 0 0 1 1 116.9 116.9 0 0 0-3 12l-2-1v-1l1-1 2-10a1.7 1.7 0 0 0 1 0Z"/><path fill="#464547" d="M265.5 726.4c2.2 0 6.2-.2 8 1l-1 5h-22.9c-2.6-1.6-14-5.8-17-7 0-5 2-8 3-11a14.7 14.7 0 0 0 8 2c-1 4 0 5 1 5a5.6 5.6 0 0 0 4 1l1-6a3.5 3.5 0 0 0 3-1c2.1 2.1 6.9 11.5 10.9 10Z"/><path fill="#231f20" d="m272.5 732.4-1 1c-7.2.8-15.1 2.6-21.9-1Z"/><path fill="#e0f1ed" d="m271.5 439.4-1 2a12.2 12.2 0 0 1-5-4Z"/><path fill="#79605b" d="M265.5 594.4v1l-7.9-3c-.2-1.4.1-4.6 0-6l-3-10c2 1.9 5.4 1.1 7.9 1a137.3 137.3 0 0 0 3 17Z"/><path fill="#614d47" d="M242.6 716.4a13.9 13.9 0 0 1-7-2h-1c-.6-.7-1.7-1.2-2-2a5.4 5.4 0 0 1 1-2 23.6 23.6 0 0 0 20 3c-1.1 4.9-7.5 2.5-11 3Z"/><path fill="#231f20" d="M249.6 716.4v6c-1.6.6-3.7-.1-5-1s-2-1-1-5c1.7-.1 4.2.2 6 0Zm-4 15-1 2-15-5v-2l1-1c4.9-.1 8.5 2.3 15 6Z"/><path fill="#e8f1d1" d="M241.6 283.4c-2.3 6.3.3 14.3-4 20-5.9.2-12.2-2.8-18-3-.9.9-3.2 2.5-2 4 5.4 1.9 12 3.5 18 3l2 1c.1 11-9.2 12.3-17 7-3.4-2.6-8.5-7.4-13-6-5.2 8.4 14.5 11.7 20 12s.9 9.1-1 11c-11 2.8-17.5-14.9-28-11 .2 7.1 9 8 14 11 3.6 1.1 8.4 1.8 12 3-.4 1.5-4.1 5.8-5 7-3.5 5.7-7.4 8.6-12 2a82.4 82.4 0 0 1-11-17c-5.5-5.3-8.4.5-7 6 3.8 7.9 9.9 16.2 19 18v1c-10.1 10.8-22.2 2.9-24-10 .1-3.2.9-7.7-3-9-10.8.8-1.6 17.1 3 21l-1 1c-15.9-4.7-14.9-12.6-11-26 1.7-5.9-12.7 13-13 13l-2-1a84.4 84.4 0 0 1 13-15v-1h-7c-13.8 2.9-20.3-12.8-16-24-.7 5.7 23.4 25.4 23 15-4.6-3.9-10.4-8.7-16-11s-6.4-10.1-4-15l10-9 4 3c2.9 5.6 6.2 11.7 7 18 1.2 8.6 9.3 9.4 6 0-.9-4.2-3.7-8.6-6-12l-4-11c5.2-5.7 13.6-7 21-8 2 4.5.8 10.3 0 15 0 3-1.2 17.1 3 16s2.3-7.9 2-11c.5-6-1.9-16.1 4-20l11 1c-4.3 7.4-6.3 15.9-3 24h2c3.3-10-3.6-29.4 15-21 .2.7-.7 2.4-1 3-3.3 2.6-4.2 7.1-5 11l1 2c5-1.7 8.1-8.8 8-14h2l4 2Z"/><path fill="#464547" d="M234.6 714.4h1c-1 3-3 6-3 11a6.7 6.7 0 0 0-2 0c.2-4.8-.9-4.5 3-13a1.7 1.7 0 0 0 0 1Z"/><path fill="#e8f1d1" d="M217.6 403.4a74.7 74.7 0 0 1 2 20c-5 2.2-11.8.7-17 0-10.9.7-7.5 5.9 1 7a34.3 34.3 0 0 0 11-1h4c.5 16.3-4.5 15-14 12-3.4-1.3-10.6-3.9-14-5s-8.8 2.8-4 6l6 2a66.5 66.5 0 0 0 23 3c.3 4.4-1.5 9.3-5 12-8.7 1-17.5-4.3-25-8-2.1-.1-9.9-2.9-8 2l6 5a110.5 110.5 0 0 0 28 5c-10.6 33.5-21.6 4.1-38-5-11.3 8.3 13.5 25.8 22 26v2c-8.8 7.7-20.3 10.5-26-2-1.2-3.2-2.1-9.2-4-12a4 4 0 0 0-6-1c-4.5 4.1 5.1 17.9 10 20v1c-10.2 4.3-20.1-7-18-17v-4c.4-1.2 1.3-3.7 1-5l-1-1c-7.9 4.2-9.8 14.9-11 23l-1-1c8.8-45.7 29.3-67.9 78-84Zm-6-254c.1 8.6.6 11-9 10-1.3-.5-3.7-1.3-5-1-4.8 4.4 10.1 3.4 12 2-1.8 5.6-9.4 8.6-13 3l-2-1v-1l-1 1c-.1 2.6.2 5.5 0 8h-1a71.2 71.2 0 0 0 0-8 12.1 12.1 0 0 0-2 3 6.7 6.7 0 0 1 0 2c-3 1.8-6.9 3.3-10 1v-1c2.6.2 6.3.3 7-3 1.2-.5 1.6-2.8 0-3s-4.1 2.8-6 4h-1c-3.6 2.8-8.1-2.4-8-6h2c3.8 2.7 8.5-.1 12-2a1 1 0 0 0 0-2 3.4 3.4 0 0 0-3-1v-2h1l1-1c-2.6-4.6-17.4 1.3-12-8a1.7 1.7 0 0 1 0-1h2c2.6 1.4 7.3 6.3 10 3 2.9-1.3-1.6-2.7-3-2-3.8-1.4-11.1-.9-7-7a1.7 1.7 0 0 1 0-1h1c2.5 1.2 5 4.7 8 4 2 .9 2-2.9 0-2-9.4-4.5-9.7-4.8-2-12 2.3.9 4.7 1.9 7 3h-1a6.7 6.7 0 0 0 0 2c-.5 1.4-2.2 4.5 0 5v-1c1.7-1.4 2.1-3.9 2-6a4 4 0 0 1 5 5 9.3 9.3 0 0 1-2 1c-.6 2.3-3.9 3.4-3 6 4.1-1.1 5.1-5.7 7-9 3.3 2.3 6.8 4.6 2 8-1.7 2.3-6.5 4.8-6 8h2c3.4-2.9 5.1-7.6 9-10 2.4 2.4 5 5.4 5 9l-5 3a14.3 14.3 0 0 0-7 3 1 1 0 0 0 0 2c2.8.5 4.5-2.1 7-3v-1h2c1.4-.8 3.3-1.8 5-1Z"/><path fill="#e0ecbb" d="M183.6 152.4v2c-1.2.9-4.6 1.7-6 2-7.2 3.7-6.1-1.9-6-7l1-1c2.8 2.5 7.2 4.4 11 4Z"/><path fill="#af724c" d="M179.6 574.4c-16.9 26.9-69.7 25.2-89 1-9.5-21.2 17.2-34.1 35-35l1 8c-58.7 12.2-19.4 42.8 19 36 45.6-7.8 28.8-35.6-8-36v-9c18 .9 51.8 10.3 42 35Z"/><path fill="#af724c" d="m179.6 575.4-19 70c-11.7 12.9-32.2 12.6-46 4a17.6 17.6 0 0 1-5-4l-8-30-11-40c20.9 24.1 68.6 25.1 89 0Z"/><path fill="#55331b" d="M173.6 566.4c-5.2 21.2-42 20.7-59 16-34.4-11.6-13-31.5 12-34l4 29h3l-5-29h7v18h2v-18c12.4.5 32.8 3.9 36 18Z"/><path fill="#e8f1d1" d="M151.6 223.4a84.1 84.1 0 0 1 1 15h-1c-.3-4.4-1.1-11.6-4-15l-1 1c1.5 8.1-4.9 19.3-14 14v-1c4.7-1 9.2-6.1 9-11-9-5.4-5.7 23.7-25 5v-1c5.2-1.5 11-1.6 15-6 4.5-1.2 6.5-11 0-7-6.5 2.1-12.1 9.4-19 9-1.5-3.9-3-7.8-3-12 6 .5 12 1.7 18 0 .7-.7 5-1.8 5-3s-3.6-1.6-5-1c-4.8 1.4-11.2 4.4-16 2-3.8.4-3.2-4.5-3-7-.1-.8-.1-2 1-2l1 1c3.8 1.8 8.9.8 13 1 2-.5 5.7-.4 6-3a2 2 0 0 0-2-2c-1.2-1.7-4.5-.3-6 0-3.9.7-9.5 2.4-13 0v-9c3.5.7 15.6 7.1 15 0-4-2.4-10.5.6-14-3-.3-4.5 1.2-8.9 3-13 18.3 11.7 36.1 24.6 39 48Z"/><path fill="#a36a47" d="M135.6 539.4v9h-7l-1-8Z"/><path fill="#e8f1d1" d="M133.6 577.4h-3c-2.9-19.3-8.5-89.3-30-92l-1 1c.5 1.9 1.6 5 2 7 8.8 16-3.6 32.4-21 32-1-1 0-1 1-2 6.2-7.6 15.7-19.1 10-29-11.1-5.7-10 13.8-12 20-3.9 17.2-23.9 15-35 6-2-1-1-2 0-2 13-5.5 34-22.5 29-38-7.9-5.6-17.5 14.2-22 19a95.6 95.6 0 0 1-9 9c-6.2 6.5-7.6 4.9-13-1-2-3-6-7-10-16 13.9-2.6 35.7-7.2 43-19-.6-5-6.1-3.8-10-1-9.4 6.9-20.9 14.6-33 15-5.5-1.4-8.4-10.5-8-16l3-1a43 43 0 0 0 16-2l11-5c3-2 7-2 8-4a5 5 0 0 0-2-8c-7.5.8-17.6 6.3-24 10-4.4 1.9-11.6 6.6-16 2-1-1-2-2-4-17l5 1 8-1c4.9-.1 12.2-1.9 17-3 2.8-1.8.9-6.4-2-7h-6c-6.8 1.9-16.1 5.7-23 3l-2-6v-22c99.2 17.8 122.6 80.3 133 167Z"/><path fill="#e0ecbb" d="M133.6 437.4h-2c-2.4-7-2.6-17.5-10-21l-1 1c-.4 1.3.3 2.9 1 4 4.8 11.1-4.6 21.6-16 20a30.9 30.9 0 0 0 10-17c-10.6-15.5-4.9 34.8-33 12v-1c7.9-4.1 25.4-11.9 21-23-3.3-3.1-6.8 1.7-9 4-12 14.4-19.7 22-27-1a65.6 65.6 0 0 0 14-1c3.5-.5 22.9-7.7 14-11l-5 1-7 4a79.2 79.2 0 0 1-13 5c-1.5-.3-3.7-2.3-5-3-1.1-2.5-2.2-5.2-2-8s5.4-.2 7 0a31.3 31.3 0 0 0 6-1c3.1-1.2 10-3.7 13-5s-.8-6.3-4-5a102.5 102.5 0 0 0-13 5c-3.2 1.4-7.4 3.3-10 0-1 0-2-1-2-11 3.2 1.8 24.7 2.4 19-5-6.3-.8-13.9 2.9-20 0-.1-6-.3-12.1 1-18 44.7 12.9 64.5 33.6 73 75Z"/><path fill="none" stroke="#000" stroke-linecap="round" stroke-linejoin="round" stroke-width=".8" d="M70.6 413.4c-4.5-1.7-7.5-7.3-7-12 9.1-.3 11.6 1.4 21-3l5-2c3.6-2.5-.6-8.2-4-5-2.9 1.5-9.8 3.3-13 4s-6.9 3.2-10 1c-1 0-2-1-2-11 1.9-.3 6.2.6 8 1 3.6.5 15.1-.2 11-6-6.3-.8-13.9 2.9-20 0-.1-6-.3-12.1 1-18 51 12.8 72.3 45.5 75 93a1103.1 1103.1 0 0 1 16-217h0c-.3-4.4-1.1-11.6-4-15l-1 1c1.5 8.1-4.9 19.3-14 14h0v-1c4.7-1 9.2-6.1 9-11-9-5.4-5.7 23.7-25 5v-1c5.2-1.5 11-1.6 15-6 4.5-1.2 6.5-11 0-7-6.5 2.1-12.1 9.4-19 9-1.5-3.9-3-7.8-3-12 6 .5 12 1.7 18 0 .7-.7 5-1.8 5-3s-3.6-1.6-5-1c-4.8 1.4-11.2 4.4-16 2-3.8.4-3.2-4.5-3-7-.1-.8-.1-2 1-2l1 1c3.8 1.8 8.9.8 13 1 2-.5 5.7-.4 6-3a2 2 0 0 0-2-2c-1.2-1.7-4.5-.3-6 0-3.9.7-9.5 2.4-13 0v-9c3.5.7 15.6 7.1 15 0-4-2.4-10.5.6-14-3-.3-4.5 1.2-8.9 3-13 32.4 19.1 45.5 40.9 38 79a133.5 133.5 0 0 1 31-56c5.3-10.6 12.9-23.7 11-36a12.1 12.1 0 0 0-2 3 6.7 6.7 0 0 1 0 2c-3 1.8-6.9 3.3-10 1v-1h0c2.6.2 6.3.3 7-3 1.2-.5 1.6-2.8 0-3s-4.1 2.8-6 4h-1c-3.6 2.8-8.1-2.4-8-6h2c3.8 2.7 8.5-.1 12-2a1 1 0 0 0 0-2c-1.3-1.6-3.6-1-5 0s-6.1 2.5-9 2-.6-5.6-1-8c5.5-.6 5.3 4 13 3l1-1c-2.6-4.6-17.4 1.3-12-8a1.7 1.7 0 0 1 0-1h2c2.6 1.4 7.3 6.3 10 3 2.9-1.3-1.6-2.7-3-2-3.8-1.4-11.1-.9-7-7a1.7 1.7 0 0 1 0-1h1c2.5 1.2 5 4.7 8 4 2 .9 2-2.9 0-2-9.4-4.5-9.7-4.8-2-12 2.3.6 4.7 1.2 7 2a1.7 1.7 0 0 1 0 1h-1a6.7 6.7 0 0 0 0 2c-.5 1.4-2.2 4.5 0 5v-1c1.7-1.4 2.1-3.9 2-6a4 4 0 0 1 5 5 9.3 9.3 0 0 1-2 1c-.5 1.6-2 2.8-3 4a13.4 13.4 0 0 0 0 2c4.1-1.1 5.1-5.7 7-9l4 3c1.3 5.3-8.5 8.1-8 13h2c3.7-2.6 4.5-8.4 9-10 2.4 2.4 5 5.4 5 9l-5 2c-1.7 2.3-5.3 1.9-7 4a1 1 0 0 0 0 2c2.8.5 4.5-2.1 7-3v-1h2c1.4-.8 3.3-1.8 5-1 .1 3.3.5 8.2-3 10-1.7.7-4.2-.3-6 0s-3.7-1.3-5-1l-1 1h0a13.4 13.4 0 0 0 13 1c-1.8 5.6-9.4 8.6-13 3l-2-1v-1l-1 1v10c-1.4 5.9-6 16.2-8 22 27.8-29.8 86.5-53.9 127.9-74 5.3-5.6 21.3-14.9 20-24h-1v1c-4.3 5.3-8.3 7.2-13 1v-1a1.7 1.7 0 0 1 0 1c3.1 0 6.3.6 9-1l1-2c-3.6-4.7-15.6 9.6-15-8h0c2 .9 3.9 2.4 6 3s9.8 1.9 9-3h0c-1.6-2.5-9.6.5-14-3-2.3-.3 1.5-7.4 2-9 3.3 4 7.9 8.1 13 9 .5-1.3-.9-2.5-2-3-4.4-3.4-12.2-3.3-8-11h2a7.5 7.5 0 0 0 4 4l3 3c1.9 2.1 6.1.1 3-2s-8.2-3.7-9-8l4-4a20.6 20.6 0 0 0 6 8c1.7-.2 1.3-2.4 0-3a24.4 24.4 0 0 0-4-5c-.1-3.7 4.3-4.8 7-6 1.2 5 5.1 17 5 22-.5 16.3-13.1 29.2-24 40 20-10 41-22 59-37 2.6-4.5 6.8-14 8-19 2.4-3.2 2.6-7.2 2-11h-1c-.6 1-.9 2.3-2 3-1 4.3-5.4 2.9-8 1h0c1.1.2 2.1-.5 3-1a6.7 6.7 0 0 0 2 0 5.4 5.4 0 0 0 1-2c2.3-.8.4-4.7-1-2-1.7.5-2.7 1.9-4 3h-1l-1 1c-2.6-.9-6.2-2.7-6-6h2c2.8 2.3 9.7.5 10-3-.7-1.9-2.8-.6-4 0h-3a5.2 5.2 0 0 1-4 1h0c-2.3.7-2.2-2.5-2-4s1.3-2.3 1-3c3.5 1.7 7 3.7 11 3v-2c-2.8-2.5-14.3 1.2-10-6v-1c.5 1 3.1 1.7 4 2 1.5 1.8 7.3 3.8 7 0a.9.9 0 0 0-1 0 5.6 5.6 0 0 0-4-1c-2.6-1.1-6.9-2.6-4-6a1.7 1.7 0 0 1 0-1h1c1.6 1.5 3.6 4.1 6 4a.9.9 0 0 0 1 0c.5-2.3-4-4.4-6-4l-1-1a13.5 13.5 0 0 1 4-6v-1l5 1 1 1h1a4.7 4.7 0 0 0-1 1v1c-.7 1.2-1.4 2.6-1 4a.9.9 0 0 0 1 0h0c1.1-1.8 2.3-3.8 2-6h0a4.8 4.8 0 0 1 3 2c2.6 1.4 0 4.5-2 5a12.4 12.4 0 0 0-1 2 4.7 4.7 0 0 0-1 1l1 1c3.2-.9 5.1-4.9 5-8 2.8 2.1 6.7 3.8 2 7-1.3 1.8-9.8 7.7-3 7 3.6-2.2 3.8-7.7 8-9 2 2.2 4.3 4.8 4 8-.7.3-4.2 2.4-5 2l-4 2c-1.7.1-3.2 2.4-1 3s3.6-1.8 5-3h1c1.1-1.2 3.3-2.6 5-2 1.6 7.6 1.6 9.6-7 9a6.7 6.7 0 0 0-5-1v1h0c2.5 3.1 7.8 2.5 11 1-3.1 5.9-9 6.1-13 1h-1c1.3 2.5.9 5.4 0 8 0 6-4.8 15.5-7 21 22.3-15.8 45.9-54.5 48-80-.6 29-16 52.8-36 72-37.9 39-91.6 55.9-138.9 80 27.7-6.4 47.8-6.5 68.9 19-2.8 2.4-5.9 5.6-10 5-4.9-3.4-2.8-13-7-11s2.9 8.2 3 11h0l1 2-7 2c-1.7-1.6-1.6-4.7-2-7s-1.2-6.1-1-8-4-4.6-4-1 .6 6.5 1 9 .6 2 1 3 2.5 3.1 2 4l-1 1c-13.2 2.9-5.3-11.4-9-18a1.1 1.1 0 0 0-2-1l-1 4c.6 5.3.7 11.7 4 16-3.2.5-7 .9-10-1-3.7-3.6 2.2-12.6 3-17a2.3 2.3 0 0 0-1-3c-4.7-.7-5.8 6.6-7 10s.2 5.4 0 8l-1 1c-4.6-2.7-8.7-6.3-7-12 2.2-3.5 10.2-6.4 6-11h-2a16.2 16.2 0 0 0-6 11h0c-4.2-2.8-1.8-9.9 1-13 1.5-.8 3.6-1 5-2h3v-1c-9.2-7.2-29.7 7.3-38.9 10-19 11.2-39.2 23.5-53 41-43.7 49.3-37.6 120.5-42 182 9.2-20 14.4-43.5 31-59v-1h-7c-13.2 2.4-20.4-13-16-24 1.5 6.6 17.4 21.4 24 17-3-6.3-11.2-10-17-13-9.1-8.3-5.6-16.3 7-24l3 3 3 6c3.6 5.1 2.9 11.7 6 17 1 3.1 4.7 1.9 5-1s-2.3-7.4-3-10a54.2 54.2 0 0 1-8-17c5.2-5.7 13.6-7 21-8 2 4.5.8 10.3 0 15 0 3-1.2 17.1 3 16s2.3-7.9 2-11c.5-6-1.9-16.1 4-20l11 1c-4.3 7.4-6.3 15.9-3 24h2c3.3-10-3.6-29.4 15-21 .2.7-.7 2.4-1 3-3.3 2.6-4.2 7.1-5 11l1 2c5-1.7 8.1-8.8 8-14h2l4 2 10 4c-2.3 6.3.3 14.3-4 20-5.9.2-12.2-2.8-18-3-.9.9-3.2 2.5-2 4 5.4 1.9 12 3.5 18 3l2 1c.1 11-9.2 12.3-17 7-3.4-2.6-8.5-7.4-13-6-5.2 8.4 14.5 11.7 20 12s.9 9.1-1 11c-6.6 1.5-12.1-4.5-17-8a8.4 8.4 0 0 0-11-3c.2 7.1 9 8 14 11 3.6 1.1 8.4 1.8 12 3-12.9 20.4-13.1 14-25-2-1.5-3-3.6-8.9-8-8-8.7 6.7 9.2 25.5 17 26v1c-10.1 10.8-22.2 2.9-24-10 .1-3.2.9-7.7-3-9-10.8.8-1.6 17.1 3 21l-1 1c-15.9-4.7-14.9-12.6-11-26 1-1 0-2-2 0-18.6 18.5-24.8 45.4-31 70-1.6 11.5-.9 84.8-1 98 4.8-49.3 27.3-77.7 79-94a74.7 74.7 0 0 1 2 20c-5 2.2-11.8.7-17 0-10.9.7-7.5 5.9 1 7a34.3 34.3 0 0 0 11-1h4c.4 15.7-3.8 15.1-13 12l-15-5c-4.4-1.3-8.8 2.8-4 6l6 2a66.5 66.5 0 0 0 23 3c.3 4.4-1.5 9.3-5 12-8.7 1-17.5-4.3-25-8-1.8 0-8.4-2.7-7.3 1.5l.3.5 5 5a110.5 110.5 0 0 0 28 5c-10.6 33.5-21.6 4.1-38-5-11.3 8.3 13.5 25.8 22 26v2c-8.8 7.7-20.3 10.5-26-2-1.2-3.2-2.1-9.2-4-12a4 4 0 0 0-6-1c-4.5 4.1 5.1 17.9 10 20v1c-10.2 4.3-20.1-7-18-17v-4c.4-1.2 1.3-3.7 1-5l-1-1c-17.5 7.1-12.9 83-14 101h-2c-2.7-27.7 8.6-135.3-14-150l-1 1c-.4 1.3.3 2.9 1 4 4.6 11-4.5 21.6-16 20a30.9 30.9 0 0 0 10-17c1-1 0-2-1-2-12-6.2-3.1 35.6-32 14v-1c7.9-4.1 25.4-11.9 21-23-3.3-3.1-6.8 1.7-9 4-12 14.4-19.7 22-27-1a50.1 50.1 0 0 0 25-5c3.9-1.3 7.8-6.3 3-7l-5 1a78.2 78.2 0 0 1-20 9Zm90 232 19-70m-70 70c-4.4-16.9-14.3-52.9-19-70m70 70c-13 14.2-37.8 12.8-51 0m19-97h7m-8-8 8-1"/><path fill="none" stroke="#000" stroke-linecap="round" stroke-linejoin="round" stroke-width=".8" d="M137.6 539.4h0c18.9.9 51.8 10.7 42 36h0c-16.7 26.1-86.1 25.8-91-9 1.7-17.7 21.5-24.4 37-26"/><path fill="none" stroke="#000" stroke-linecap="round" stroke-linejoin="round" stroke-width=".8" d="M137.6 548.4c36.8.4 53.6 28.2 8 36-38.5 7.1-77.8-24.5-19-36m275.9 150-4-3m-6 41h2v1a.9.9 0 0 0 1 0v-1a.9.9 0 0 1 1 0 .9.9 0 0 1 1 1h1a1.7 1.7 0 0 1 1 0 .9.9 0 0 1 1 0h1l1 3m-17-64a1 1 0 0 0-2 0 1 1 0 0 0 2 0Zm-9-12v1c-2 4-1 5-1 7s-1.4 6.2 1 8h1m11-9a1.7 1.7 0 0 0-1 0c-1.2-.9-3.1-1.8-4 0v1c1.2 0 2.4-.2 3 1h1c.8.5 1.5-.3 1-1a1.7 1.7 0 0 0 0-1Zm40 54 4 1c-.5 4 5.4 0 5 4m-8-13h-9a11.8 11.8 0 0 1 1 3l1 1c.3 2.1.9 4.6-2 5 .7-3.7-.1-4.4-4-9-.7-.2-3.2-1.2-4-1-8.4.1-14.2-13-23-9m1-41c.5 7 1.6 15 8 19 .6 1.3 2.7.3 2-1 2.2-4.6 10.2-6.4 8-13m-32 13 1 1a1.7 1.7 0 0 0 0-1c1.5-.5 2.1 1.3 3 2a6.3 6.3 0 0 1-1 3m96-36a15 15 0 0 1 0 3h0l1-1h0c-.1 1.5 1 5.2 3 2"/><path fill="none" stroke="#000" stroke-linecap="round" stroke-linejoin="round" stroke-width=".8" d="M436.5 716.4c.7 5.6-1.4 3.9-2 7a1.6 1.6 0 0 1-2 1l-2 1h-2a4.7 4.7 0 0 0-1 1 5.4 5.4 0 0 0-2 1 6.7 6.7 0 0 0 0 2h0c.8 2.6 3.9 2 6 2a4.7 4.7 0 0 0 1-1 13.4 13.4 0 0 1 2 0 2.4 2.4 0 0 0 1 1 7.5 7.5 0 0 0 2-1h0c2.3-.5 3.7-3.4 6-4s.8-5.5 4-4l-1 2 3-3a6.7 6.7 0 0 1 0-2c3.1-2.4 1.7-6.7 3-10m-58-2c2 2 2 3 1 4a3.4 3.4 0 0 1 0 2 3.7 3.7 0 0 1-3 1h0a10.1 10.1 0 0 0 3 0l1-1c-.4 3.9 3 7 2 11s2.4 5.3 0 7c-.6 1.1-1.3 3.5-3 3l-1 1a6.7 6.7 0 0 0-2 0 .7.7 0 0 1-1 1c-.2 1.3.1 2.7 0 4a1.7 1.7 0 0 1 1 0v1h9a1.7 1.7 0 0 0 0-1 1.9 1.9 0 0 0 1-1c-.5-2.4 2.5-2 4-2 4-4.3.9-12.2 6-16l1-5m-5-24-9 3c-.7-.2-4.3.8-5 1-2.3 1.7-5.3.9-8 1s-4 2.5-5 4-2.3 4.7 0 4c.4 3.4 5.8 1.5 8 2l2-2a.9.9 0 0 0-1-1h-3c-.7-.1-.4-2.2-2-2s-3.3-.8-4-1"/><path fill="none" stroke="#000" stroke-linecap="round" stroke-linejoin="round" stroke-width=".8" d="M457.5 703.4c-7 11.1-16.1 12.4-28 14-2.1-2.4-6.1-2-9-2-4.4-.6-8.9-1.2-13-3a4.7 4.7 0 0 1-1-3l1-1-1-1-3-1 1-2c1.1-.5 5-1.9 2-3a28.3 28.3 0 0 0-3-3h-1m72 12-3-3c.7 1.9 1.8 7.1 4 8-1.4-.1-2.6-1.1-4-1a7.5 7.5 0 0 0 1 2v1c2.3 2.7.3 4.6-1 7 .3 4.3-.1 8.4-4 11h0a.9.9 0 0 1-1 0h-6v-1h-2 0a2.4 2.4 0 0 0-1-1h-1v-1c2.1-1 3.4-1.3 3-4a4.7 4.7 0 0 1 1-1c.8-4.6-1.2-9.8-3-14-1.1-1.1-3.7-3.4-4-5"/><path fill="none" stroke="#000" stroke-linecap="round" stroke-linejoin="round" stroke-width=".8" d="M394.5 696.4h0c-3.4-13.1-7-3-14-7-.9.6-4.3-2.7-5-3a21.2 21.2 0 0 0 2-6c3.4-5.9-4.6-12.8 1-18a14.3 14.3 0 0 1 19-5c2.7.6 6.9 1.1 9 3 6.6 6 14.4 12.5 24 11a.9.9 0 0 1 0 1c-1 .2-2-.1-3 0a4.7 4.7 0 0 0 1 1 7.2 7.2 0 0 0 5-1 24.1 24.1 0 0 0 8-1c1.6-.1 11.9.6 13-1a2.4 2.4 0 0 1 1 1 4.8 4.8 0 0 0 4-1h1c1.7-2.3 5.4-3.6 7-6v-2a3 3 0 0 1 2-1c3.1-2.6 5.1-6.4 7-10 2.6 3.5 5.2 9.9 1 13a10.5 10.5 0 0 1-2 7v1l-2 1c-2.5 4.2.3 12.6 1 17-.6 6.6-4.6 13.8 0 20h1m-8 25c-.7 1.4-.8 4.7-3 4h0a1.7 1.7 0 0 1 0-1c-.7 1.5-3 3.2-4 1h0v-1c-1.1 1.6-4.8 1.5-4-1-.7-.3-1.4-1.2-1-2h0v-1l1-1"/><path fill="none" stroke="#231f20" stroke-linecap="round" stroke-linejoin="round" stroke-width=".8" d="m101.6 615.4-53 27 376.9 244 423.9-217-36-22"/><path fill="none" stroke="#000" stroke-linecap="round" stroke-linejoin="round" stroke-width=".8" d="m506.5 389.4-88-57v-70l88 58Zm89-73v27l-146-95v-115c19.2 12.5 129.6 84.2 146 95Zm175.9 75 52 34v115l-146-95v-115Z"/><path fill="none" stroke="#000" stroke-linecap="round" stroke-linejoin="round" stroke-width=".8" d="M771.4 403.4v27c-56-36.5-146.3-94.6-201.9-131v-160l201.9 132Zm108 32-89-57v-70l89 58Zm-151 157c-5.1 1.6-54.8 27.1-60.9 30-14.5 8.7-42.9 17.9-36 40 3 8 9 13 15 17a90.3 90.3 0 0 0 89.9 9l52-27c15.1-7.6 42.6-18.5 36-40-3-9-11-14-18-18-21.5-17.1-52-19.4-78-11Zm-233.9-153c6.8-3.1 14.6-3.5 22-4m160.9 134c-16.1 7.8-62.1 31.7-76.9 40a86.7 86.7 0 0 1-61 4c-5.2-1-11-2.2-15-6-10.7-6.4-55.7-35.7-67-43s-58.2-34.4-66-45c-15.4-22.8 16-38.6 33-46 19.6-9.2 49.6-27.4 70-34m181.9 80c24.2 13.7 27.9 36 1 50"/><path fill="none" stroke="#000" stroke-linecap="round" stroke-linejoin="round" stroke-width=".8" d="M732.4 338.4c.8-6.4 7.4 1.9 7 5-.4 7-8-.9-7-5Zm85 148-23-15v-37l23 15Zm0 41-132-85v-35l132 86Zm-317.9-159-21-14v-2l21 13Zm-25-16-15-10v-2l15 10Zm-17-11-9-6v-3l9 7Zm-13-9-21-13v-2l21 13Zm2-19-23-15v-2l23 14Zm-13-2-10-6v-2l10 6Zm26 10-9-6v-2l9 6Zm30 20-26-17v-3l26 18Zm4 0 8 5v2l-8-5Zm-32-12-24-15v-3l24 16Zm9 7-5-4v-2l5 3Zm10 6-6-4v-2l6 3Zm19 12-15-10v-2l15 10Zm-59-31-17-11v-2l17 11Zm15 10-11-8v-2l11 7Zm27 17-23-15v-2l23 15Zm13 8-9-6v-2l9 6Zm376.9 49-21-13v-3l21 14Zm-25-16-15-10v-2l15 10Zm-17-11-9-6v-2l9 6Zm-12-8-21-13v-2l21 13Zm1-19-23-15v-2l23 14Zm9 19-9-6v-2l9 6Zm4-11-9-7v-2l9 6Zm30 19-26-17v-2l26 17Zm4 0 7 5v2l-7-4Zm-32-11-25-16v-3l25 16Zm9 6-5-4v-2l5 3Zm10 6-6-4v-2l6 4Zm19 12-16-10v-2l16 10Zm-61-16-17-11v-3l17 11Zm-8-23-12-7v-2l12 7Zm52 35-23-15v-2l23 15Zm13 9-10-6v-3l10 6Zm-331.9-151 14 9m-39-36h0l-9-19m34 46c0 13-9 13-18 5-5-5-10-15-10-23-.3-12.4 9.1-13.9 18-5 6 5 10 15 10 23Z"/><path fill="none" stroke="#000" stroke-linecap="round" stroke-linejoin="round" stroke-width=".8" d="M550.5 256.4c.8 25-20.8 26.7-35 11s-31.8-50-13-66c26.3-11.5 48.3 34 48 55Zm-49 71-78-50v-4l78 50Zm269.9 72 47 30v5c-29.2-19.5-104.6-68.4-135-88v-5Zm102-25-77-51v-4l77 50Zm-272.9-75c.5-7.2 7.1 1.7 7 5-.6 6.3-8.2-1-7-5Zm0-23c.5-8.3 7.7 1.4 7 5-.6 6.3-8.2-1-7-5Zm0-23c.5-8.3 7.7 1.4 7 5-.6 6.3-8.2-1-7-5Zm37 70c1.2-6.4 8.3 1.3 8 5-1.1 8.2-8.9-.8-8-5Zm0-23c1.2-6.4 8.3 1.3 8 5s-3 4-5 1a9.4 9.4 0 0 1-3-6Zm0-69c1-8.2 8.8.8 8 5-1.2 6.4-8.4-1.3-8-5Zm0 46c0-3 3-3 5-1 3.7 2.6 4.4 12-2 7a9.4 9.4 0 0 1-3-6Zm0-23c1-7.1 8.1 1.2 8 5-1.2 6.4-8.4-1.3-8-5Zm0-46c1-8.2 8.8.8 8 5-1.2 6.4-8.4-1.3-8-5Zm75.9 72c0-4 2-4 5-2s3.6 13-2 8a10.4 10.4 0 0 1-3-6Zm0 46c.5-7 8.1.9 7 5-.7 6.4-7.3-1.9-7-5Z"/><path fill="none" stroke="#231f20" stroke-miterlimit="10" stroke-width=".8" d="M713.4 303.4c0-4 2-4 5-2s3.6 13-2 8a10.4 10.4 0 0 1-3-6Z"/><path fill="none" stroke="#000" stroke-linecap="round" stroke-linejoin="round" stroke-width=".8" d="M732.4 292.4c1-7.6 7.8 1.3 7 5-.5 6.3-8.1-1-7-5Zm0 23c.8-6.4 7.4 1.9 7 5-.5 6.3-8.1-1-7-5Zm-75.9-26c1.1-6.4 8.3 1.3 8 5-1.1 8.2-8.9-.8-8-5Zm0 47c.8-7.8 8.2 0 8 4s-3 4-5 2a9.4 9.4 0 0 1-3-6Zm0-24c1.1-6.4 8.3 1.3 8 5-1.1 8.2-8.9-.8-8-5Zm-38-1c1.2-6.4 8.3 1.3 8 5s-3 4-5 1a9.4 9.4 0 0 1-3-6Zm0-23c1-7.1 8.1 1.2 8 5-1.2 6.4-8.4-1.3-8-5Zm0-69c.8-7.8 8.2 0 8 4s-3 4-5 2a9.4 9.4 0 0 1-3-6Zm0 46c1.4-7.5 8.8.7 8 5-1.2 6.4-8.4-1.3-8-5Zm0-23c1-8.2 8.8.8 8 5-1.2 6.4-8.4-1.3-8-5Zm-43-86v-5l190.9 124v4Zm-6 60 21 14v5c-11.2-8-121.4-78.6-136-88v-5Zm103.9 450h0m-1.9-1a35.8 35.8 0 0 1 4.9 3m97-21 9-5m-106 26-3-2m-1.9 2 4.9 3m98-62 7 4m-7-4 7 4m0 0v1a.9.9 0 0 1-1 0m1-1a.9.9 0 0 1 0 1m-8-5h0v-1a.9.9 0 0 1 1 0m-1 1a.9.9 0 0 1 1 0m-1 37h-1a2 2 0 0 1 1-2m0 0 9-5m0 0c1 0 2 0 1 1a2 2 0 0 1-1 2m0 0-9 4m11-7a.9.9 0 0 1 0 1"/><path fill="none" stroke="#000" stroke-linecap="round" stroke-linejoin="round" stroke-width=".8" d="M782.4 642.4a2 2 0 0 0 2-2m-94 41-32.9-22m124.9-20a1 1 0 0 1 2 0m-12 7h0m-1 0 2-2m-1 2 1 1m-5-49 33 21m-28 25 9-5m-76 42c-4 3-11 3-16 0"/><path fill="none" stroke="#000" stroke-linecap="round" stroke-linejoin="round" stroke-width=".8" d="M677.4 670.4a.9.9 0 0 1 0 1h0m-23.9-18h0m151.9-27h0m-53-29c4-2 11-2 15 1m-108.9 47 93.9-48m48 36c-11.4 5.5-81.1 41.4-94 48m-48.9-22-4-5m150.9-27h0a8.1 8.1 0 0 1-4 6m-146.9 19c0-3 3-5 5-7m142.9-26a7.9 7.9 0 0 1 3 7m-128 45h1m103-57-7-5m-97 59 1 2m-7.9-4a1.7 1.7 0 0 1 0-1m0 0c-.1-1.3 2-1.3 2 0m-2 1a2.7 2.7 0 0 0 2 2"/><path fill="none" stroke="#000" stroke-linecap="round" stroke-linejoin="round" stroke-width=".8" d="M800.4 631.4c2-1 4-2 4-5m-5-7-33-21m38 28h0m-50-29-93.9 49m-1 7 32.9 21m12 1 94-49m-33-28c-3-2-8-2-12-1m0 0h-1m-95.9 61a1.9 1.9 0 0 0 1 1m-1-2a4.8 4.8 0 0 1 3-4m1-7c-3 1-4 4-1 7m1-7a2 2 0 0 0-2-1h0m18.9 26 13 8m-33.9-21 13 8m7.9 4 13 8m-33.9-21 13 8m20.9 16h0a2.3 2.3 0 0 1 0-2m2-5c4 2 9 2 12 0m80-34 16-8m0 0v1h0m-16 6 16-8m0 0a6 6 0 0 0-2-5m3-7a1.8 1.8 0 0 0-2 0m-1 7a3.9 3.9 0 0 0 1-7m-32-21h0a1.7 1.7 0 0 0-1 0m34 34v-1m-124 40h1m13 8v-1m-18.9-10 1.9-2m108-53h0m-7-4h0m-67 71v-1m-15-5a5.1 5.1 0 0 0-2 4m17 1a5.8 5.8 0 0 0-3-5m3 5 65-33m-65 34-1 1h0m1-1 65-34m-82 32c4 3 12 3 17 1"/><path fill="none" stroke="#000" stroke-linecap="round" stroke-linejoin="round" stroke-width=".8" d="M690.4 679.4c4 3 12 3 17 1m-53.9-27c-.3 2.1 1.2 4 3 5m0 0v-1m-3-4 3 4m143.9-25c2-1 4-3 4-5a4.7 4.7 0 0 0 1-1m-297.9-129v-1h0m86 47h1c1.6 2.6 10.4 7.4 13 9m0 1a1.7 1.7 0 0 1 0 1m0-2v1m0 1-4 2m0 0a4.1 4.1 0 0 1-4 0m0 0-14-9m0-1a1.9 1.9 0 0 1-1-1l1-1m0 0c1-.3 3.4-1 4-2m0 0a4.2 4.2 0 0 1 4 1m-104-68v1c2 1.2 11.7 7.9 14 8m0 0c.4.8 1.9 2.9 0 3m0 0-4 2m0 0a4.2 4.2 0 0 1-4-1m0 0-14-9m0 0a2.4 2.4 0 0 1-1-1l1-1m0 0 4-2m0 0a4.1 4.1 0 0 1 4 0m91 75v-1m0 1h0m0-1 3-1m0 0a1.8 1.8 0 0 1 2 0m0 0h0l5 3m0 0 1 1a.9.9 0 0 1-1 0m0 0-2 2m0 0a1.8 1.8 0 0 1-2 0m0 0-6-4m6 4h0a1.7 1.7 0 0 1 0 1m0 0-3 1m0 0a1.8 1.8 0 0 1-2 0m0 0-5-4m0 0h0v-1m0 0 3-1m1 0h0m-2 0a1.8 1.8 0 0 1 2 0m9 5 6 4m0 0v1a.9.9 0 0 1-1 0m1 0-3 2m0 0a2 2 0 0 1-2-1m0 1-6-4m0 0a.9.9 0 0 1 0-1h0m0 0 3-2m0 0a1.8 1.8 0 0 1 2 0m-17-11 6 4m0 0v1a.9.9 0 0 1-1 0m1 0-3 2m0 0a2 2 0 0 1-2-1m0 1-6-4m0 0a.9.9 0 0 1 0-1h0m0 0h0l3-2m0 0a1.8 1.8 0 0 1 2 0m1-4 1 1a1.7 1.7 0 0 1-1 0 4.7 4.7 0 0 1-1 1m0 0-5 3m0 0h-2m0 0-6-4m0 0h0v-1h1m0 0c.9-.5 4.5-2 5-3m0 0h3m0 0 4 3h1m-8-5v1a1.7 1.7 0 0 1-1 0m0 0-5 3m-9-35-6-4m0 0h0c-1-1 0-1 1-2m0 0c1-.3 3.5-1 4-2m0 0h2m9 5 2 2 4 2m0 0v1a3.2 3.2 0 0 1-1 1m0 0-4 2m0 0h-3m0 0-6-4m0 0h0l1-1m0 0 5-2m-1 0 3-1m8 6 3 1 3 3m0 0h0a3.2 3.2 0 0 1-1 1m0 0-4 2m0 0h-3m1 1-6-4m0 0h0v-1a3.2 3.2 0 0 1 1-1m0 0c1-.3 3.4-1 4-2m0 0h2m9 5c.9.6 5.5 3.1 6 4m-1 0 1 1a1.7 1.7 0 0 1-1 0m0 1-4 2m-1 0h-2m0 0-6-4m0 0h0l1-1m0 0 4-2m0 0 3-1m8 6 3 1 3 3m0 0h0a3.2 3.2 0 0 1-1 1m0 0-4 2m0 0-2 1m0 0-6-4m0 0h0c-1-1 0-1 1-2m0 0 4-2m0 0h2m9 5 2 2 4 2m-1 0 1 1a1.7 1.7 0 0 1-1 0m0 1-4 2m-1 0h-2m0 0-6-4m0 0h0l1-1m0 0 3-2h1m0 0 3-1m8 6 3 1 3 3m0 0h0a3.2 3.2 0 0 1-1 1m0 0-4 2m0 0h-3m0 1-5-4m0 0h0c-1-1 0-1 1-2m0 0c1-.3 3.4-1 4-2m0 0h2m9 5a21.5 21.5 0 0 0 5 4h0m0 0 1 1a1.7 1.7 0 0 1-1 0m0 0-5 3m0 0h-2m0 0-6-4m0 0h0l1-1m0 0 3-2h1m0 0 3-1m8 6 6 4m0 0h0a3.2 3.2 0 0 1-1 1m0 0-4 2m0 0h-3m0 0-5-3m0 0a.9.9 0 0 1-1-1l1-1m0 0 4-1 1-1m0 0h2m5-7a70.4 70.4 0 0 0 9 6m0 0v1a1.7 1.7 0 0 1-1 0m0 1-4 2m0 0a3.2 3.2 0 0 1-3 0m0 0-9-6m0 0c-.6-.8.5-1.5 1-2m0 0 4-2m0 0a3.2 3.2 0 0 1 3 0m-9-6c.9.6 5.5 3.1 6 4m0 0h0a3.2 3.2 0 0 1-1 1m0 0-4 2m-1 0-2 1m0 0-6-4m0 0h0l1-1m0 0 4-2m0 0 3-1m-9-5 6 3m0 0v1a3.2 3.2 0 0 1-1 1m0 0-4 2m0 0h-2m0 0-6-3m0 0c-.6-.8.5-1.5 1-2m0 0c1-.3 3.4-1 4-2m0 0h2m-8-6c.4.9 5.1 3.4 6 4m0 0v1a1.7 1.7 0 0 1-1 0m0 0-4 3m0 0h-3m0 0-5-4m-1 0h0l1-1m0 0 5-2m0 0 2-1m-8-5 5 4m0-1v1a3.2 3.2 0 0 1-1 1m0 0-4 2m0 0h-2m0 0-6-3m0 0c-.6-.8.5-1.5 1-2m0 0c1-.3 3.4-1 4-2m0 0h2m-8-6c.4.9 5.1 3.4 6 4m0 0v1a1.7 1.7 0 0 1-1 0m0 0-4 3m0 0h-3m0 0-5-4m0 0a.9.9 0 0 1-1 0l1-1m1 0 4-2m0 0 2-1m-8-5a31.5 31.5 0 0 0 5 3m0 0v1a3.2 3.2 0 0 1-1 1m0 0-4 2m0 0h-2m0 0-6-3m0 0c-.6-.8.5-1.5 1-2m0 0c1-.3 3.4-1 4-2m0 0h3m-9-6 6 4m0 0v1a1.7 1.7 0 0 1-1 0m0 0-4 3m0 0h-3m0 0-5-4m0 0a.9.9 0 0 1-1 0l1-1m0 0c.7-.3 4.2-2.4 5-2m0 0 2-1m-8-5a21.5 21.5 0 0 0 5 4m1 0a3.2 3.2 0 0 1-1 1m0-1h1m-1 1-5 2m0 0h-2m0 0-6-3m0 0h0l1-2m0 0c1-.3 3.5-1 4-2m0 0h3m-9-6 6 4m0 0v1a1.7 1.7 0 0 1-1 0m0 0-4 3m0 0h-3m0 0-5-4m0 0a.9.9 0 0 1-1 0l1-1m1 0 4-2m0 0 2-1m-8-5c1.5.4 4 2.9 5 4m0 0h1a3.2 3.2 0 0 1-1 1m0 0-5 2m0 0h-2m0 0-6-3m0 0h0l1-2m0 0c1-.3 3.5-1 4-2m0 0h3m-9-6c1.4.5 4.8 3.1 6 4m0 0v1a1.7 1.7 0 0 1-1 0m0 0-4 3m0 0h-3m0 0-5-4m0 0h0l1-1m0 0 4-2m0 0 2-1m-8-5c.5.8 4.2 3.4 5 4m0 0h1a3.2 3.2 0 0 1-1 1m0 0-5 2m0 0h-2m0 0-6-3m0 0h0l1-2m0 0c1-.3 3.5-1 4-2m0 0h3m-9-6c.5.9 5.1 3.4 6 4m0 0v1a1.7 1.7 0 0 1-1 0m0 1-4 2m0 0h-3m1 0-6-4m0 0h0l1-1m0 0 4-2m0 0 2-1m6-2 6 3m0 0v1h0m0 0-3 2m0 0a1.8 1.8 0 0 1-2 0m0 0-6-4m0-1h1m-1 1a.9.9 0 0 1 0-1m1 0 2-2m0 0a1.8 1.8 0 0 1 2 0m9 6 6 4m0 0v1a.9.9 0 0 1-1 0m1 0-3 1m0 0a1.8 1.8 0 0 1-2 0m0 0-6-4m0 0v-1m0 1h0m0-1h2l1-1m0 0a1.8 1.8 0 0 1 2 0m8 6 6 4m0 0h1a1 1 0 0 1-1 1m0 0-2 1m0 0a1.8 1.8 0 0 1-2 0m0 0-6-4m0 0v-1m0 1h0m0-1 2-1m0 0a1.8 1.8 0 0 1 2 0m9 6 6 4m0 0h0a.9.9 0 0 1 0 1m0 0-2 1m0 0a1.8 1.8 0 0 1-2 0m0 0-6-4m-1-1h1m0 1a.9.9 0 0 1 0-1m0 0 2-1m0 0a1.8 1.8 0 0 1 2 0m9 5 6 4m0 0v1h0m0 0-2 2m-1 0a1.9 1.9 0 0 1-1-1m0 1-6-4m-1-1h1m0 1a.9.9 0 0 1-1-1m1 0 2-2m0 0a1.8 1.8 0 0 1 2 0m9 6 6 4m0 0v1h0m0 0-3 1m0 0a1.8 1.8 0 0 1-2 0m1 0-7-4m0 0 1-1m-1 1h0m1-1 1-1h1m0 0a1.8 1.8 0 0 1 2 0m9 6 6 4m-1 0h1a1 1 0 0 1-1 1m0 0-2 1m0 0a1.8 1.8 0 0 1-2 0m0 0-6-4m0 0v-1m0 1h0m0-1c.6-.3 2.2-1.3 3-1m0 0a1.8 1.8 0 0 1 2 0m8 5 6 4m0 0 1 1a.9.9 0 0 1-1 0m0 0-2 2m0 0a1.8 1.8 0 0 1-2 0m0 0-6-4m0 0a.9.9 0 0 1 0-1h0m0 0a7.5 7.5 0 0 0 3-2m-1 0a1.8 1.8 0 0 1 2 0m9 6 6 4m0 0v1h0m0 0-2 1m-1 0a1.7 1.7 0 0 1-1 0m0 0-6-4m-1 0 1-1m0 1a.9.9 0 0 1-1 0m1-1 1-1h1m0 0a1.8 1.8 0 0 1 2 0m9 6 6 4m0 0h0a1.7 1.7 0 0 1 0 1m0 0-3 1m0 0a1.8 1.8 0 0 1-2 0m0 0-6-4m0 0 1-1m-1 1h0m1-1 1-1h1m0 0a1.8 1.8 0 0 1 2 0m9 5 6 4m-1 0 1 1a.9.9 0 0 1-1 0m0 0-2 2m0 0a2 2 0 0 1-2-1m0 1-6-4m0-1h0m0 1a.9.9 0 0 1 0-1m0 0 2-1 1-1m0 0a1.8 1.8 0 0 1 2 0m8 6 6 4m0 0 1 1a.9.9 0 0 1-1 0m0 0-2 1m0 0a1.8 1.8 0 0 1-2 0m0 0-6-4m0 0h0v-1m0 0h2l1-1m0 0a1.7 1.7 0 0 1 1 0m9 6 6 4m0 0h0a1.7 1.7 0 0 1 0 1m0 0-2 1m0 0a1.8 1.8 0 0 1-2 0m0 0-6-4m-1 0 1-1m0 1a.9.9 0 0 1-1 0m1-1 1-1h1m0 0a1.8 1.8 0 0 1 2 0m9 6 6 3m0 0v1h0m0 0-3 2m0 0a1.7 1.7 0 0 1-1 0m0 0-6-4m-1-1h1m0 1a.9.9 0 0 1-1-1m1 0 2-2m0 0a1.8 1.8 0 0 1 2 0m14-5 4-4m-117-70-2 2m5-5v1l-3 2m117 72h0v-2m0 0-114-73m10 93-33 17m-15-48 48 31m-82-14 34-17m15 48-48-31h-1m66-74 3-2h0m110 75-112-73h-1m120 70-4 1h0l-3 2m3 9-53 28m-79-113 132 85m-185-58 53-27m31 81-40-25h0c-5.8-3.9-13.1-9.2-19-13-2.2-.2-7.2-3.8-9-5h0c-1.1-1.6-6.3-4.9-8-6h0c-1.8-1.3-6.1-3.9-8-5m97 63h0c-3.6-2.3-9.4-6.7-13-9m48 32a10.8 10.8 0 0 1-4-3l-6-4-3-1-5-4h0c-5-3.5-12-7.5-17-11m-89-1h5m0 0v2m-5 0h5m0-2 19 13m-19-11 19 12m0-1v1l-1 1m6-44h0m-33 17 33-17m0 0 48 31m-44-99 10-5m-108 56 97-50m11-6c2.3-.2 5-.3 7 1m0 0 17 11m114 74 18 11m0 0 1 2a3.1 3.1 0 0 1-2 2m2 6c0 2-1 2-2 2m0-8-107 56m0-1a6.8 6.8 0 0 1-7 0m7 9a6.8 6.8 0 0 1-7 0m0-9-61-39m0 0h0v2m0 0-23-15m0 0v-2m0 0-65-42m0 0a3.1 3.1 0 0 1-2-2l2-2m0 12a2 2 0 0 1-2-2m264 44-108 56m109-56-107 55"/><path fill="none" stroke="#000" stroke-linecap="round" stroke-linejoin="round" stroke-width=".8" d="M559.5 605.4a4.1 4.1 0 0 1-4 0m-1-1-149-97m238 30-51 27m55-27h-4m-128-85 3 4m-51 26 51-26m0 0 125 81m24-120v114h0m-145-208h0l145 94m-145 20v-114m145 208-145-94m0 0h0m145 94-145-94m0 0v-114m150 96v119m0 0c-.1 1-.8 2.4-2 2m4.9-4-1 2m-157.9-99h0a6.7 6.7 0 0 1 0-2m0 0v-119m1-2a3.4 3.4 0 0 1 2 0m-3 2 1-2m3-2h2m-3 2 150 97m0 0a8.3 8.3 0 0 1 3 6m0-7a7.9 7.9 0 0 1 2.9 6m-150.9-103 149.9 97m2 4v119m-1-117v118m-151.9-221 149 97m1.9 0a4.8 4.8 0 0 1 2 4m-68.9 137h0m-23-7h0v-1m-80-59h0v1m-24-8v-1h0m100 72h0m11 2h0v1m-5 1h0v1m-10-2h0v-1h0m19 8h0v1m-11-3v-1h0m-6-8h0v1m-11-3v-1h0m7-5h0v1m-15 0h0v-1h0m6-6v1h0m-17-1v-1h0m-63-51h0v1m-15 0h0v-1m23 6h0v1m-15 0h0v-1h0m24 5h0v1m-15 0h0v-1h0m25 7h0v1m-17-1v-1h0m11 8v-1h0m49 22h0m-42-38h0v1m-14-1h0m22 6h0m9 5h0v1m-14-1h0m22 6h0m-14 0v-1h0m22 6h0v1m-13-1h0m22 6h0m-14 0v-1h0m22 6h0v1m-13-1h0m22 5v1h0m-14 0v-1h0m22 6h0v1m-13-1h0m22 5v1h0m-14 0v-1h0m41 8v1h0m-14-10h0v1m-14-1v-1h0m5-5h0m-13 1v-1h0m5-5h0v1m-14-1v-1h0m5-5h0v1m-13 0v-1h0m5-5h0v1m-14-1v-1h0m5-5v1h0m-13 0v-1h0m5-5h0v1m-14-1v-1h0m5-5v1h0m-13 0v-1h0m5-5h0v1m-14-1h0v-1m5-5v1h0m-13 0v-1h0m5-5h0m-14 0v-1h0m5-4h0m7-6h0m-18-3v-1h0m26 9h0v1m-13-1h0m22 6h0m-14 0v-1h0m22 6h0v1m-13-1h0m22 6h0m-14 0v-1h0m22 6h0v1m-13-1h0m22 6h0m-14 0v-1h0m22 6h0v1m-13-1h0m22 6h0m-14 0v-1h0m22 6h0v1m-13-1h0m22 6h0m-14 0v-1h0m22 6h0v1m-13-1h0m22 5v1h0m-14 0v-1h0m22 6h0v1m-14-1h0v-1m22-3h0m-17-3v-1h0m5-5v1h0m-14 0v-1h0m5-5h0v1m-13-1v-1h0m5-5v1h0m-14 0v-1h0m5-5h0v1m-13-1v-1h0m5-5v1h0m-14 0v-1h0m5-5h0v1m-13-1v-1h0m5-5v1h0m-14 0v-1h0m6-5h0v1m-14-1h0v-1m5-5v1h0m-14 0v-1h0m6-5h0v1m-14-1h0v-1m5-5v1h0m-13 0v-1h0m5-5h0v1m-14-1h0v-1m5-4h0m-13 0v-1h0m19-2h0v1m-11-3v-1h0m20 9h0m-11-2v-1h0m20 8h0v1m-11-2v-1h0m19 8h0v1m-10-3v-1h0m19 9h0v1m-11-3v-1h0m20 8v1h0m-11-3h0m20 8h0v1m-11-3h0m20 8h0m-11-2v-1h0m19 8v1h0m-11-2v-1h0m20 8h0v1m-11-3h0m20 8h0m-11-2v-1h0m20 9h0m-11-2v-1h0m19 8h0v1m-10-2v-1h0m19 8h0v1m-11-3v-1h0m42 4v8m-267-41v-8h0m153 108-1-1m118.9-66-2.9 2h0m-154-224h0l3-2m39 225h-3m0 0-7-4m0 0a.9.9 0 0 1-1-1l2-1m0 0 5-3m-1 0h3m0 0c.8.6 7.6 4.1 8 5m-86-56c1.4.5 4.8 3.1 6 4m0 0h0a2.4 2.4 0 0 1-1 1h0m0 0-5 3m0 0h-3m0 0-6-3m0 0a.9.9 0 0 1 0-1h0a4.7 4.7 0 0 1 1-1m0 0 5-2m0 0 3-1m8 6 6 3m0 0v1h0l-1 1m0 0-5 2m0 0-3 1m0 0-6-4m0 0h0l1-1h1m0 0c.9-.5 4.5-2 5-3m-1 0h3m9 5 6 4m0 0h0a1.7 1.7 0 0 1-2 1m0 0-4 3m-1 0h-2m0 0-6-3m0 0a.9.9 0 0 1 0-1h0a4.7 4.7 0 0 1 1-1m0 0c.7-.3 4.2-2.4 5-2m0 0 3-1m9 6h0l7 5m0 0h0a3.2 3.2 0 0 1-1 1m0 0-5 3m0 0h-3m0 0-7-5m0 0a.9.9 0 0 1-1 0l2-1m0 0 5-3m0 0h3m1 11h0v-1m0 0c1.4-.8 5.6-3.4 7-4m0 0a1.8 1.8 0 0 1 2 0m0 0c12.1 8.9 26.9 17.1 39 26m0 0 1 1a.9.9 0 0 1-1 0m0 0-7 4m0 0a1.7 1.7 0 0 1-1 0m0 0-40-26m1-20a21.5 21.5 0 0 0 5 4m0 0h1a3.2 3.2 0 0 1-1 1m0 0-5 2m0 0-2 1m0 0-6-4m0 0h0l1-2m0 0c1-.3 3.5-1 4-2m0 0h3m8 5 6 4m0 0v1a3.2 3.2 0 0 1-1 1m0 0-4 2m0 0h-3m0 0-5-4m0 0a.9.9 0 0 1-1 0l1-1m1 0 3-2h1m0 0 2-1m9 6a21.5 21.5 0 0 0 5 4m0 0h1a3.2 3.2 0 0 1-1 1m0 0-5 2m0 0-2 1m0 0-6-4m0 0h0l1-2m0 0c1-.3 3.5-1 4-2m0 0h3m8 5 2 2 4 2m0 0v1a3.2 3.2 0 0 1-1 1m0 0-4 2m0 0h-3m0 0-5-4m0 0a.9.9 0 0 1-1 0l1-1m1 0 4-2m0 0 2-1m9 6c1.5.4 4 2.9 5 4m0 0h0a3.2 3.2 0 0 1-1 1m0 0-4 2m0 0h-2m0 1-6-4m0 0h0c-1-1 0-1 1-2m0 0c1-.3 3.5-1 4-2m0 0h3m8 5 2 2 4 2m0 0v1a3.2 3.2 0 0 1-1 1m0 0-4 2m0 0h-3m0 0-5-4m-1 0h0l1-1m0 0c.7-.3 4.2-2.4 5-2m0 0 2-1m9 6c1.5.4 4 2.9 5 4m0 0h0a3.2 3.2 0 0 1-1 1m0 0-4 2m0 0h-2m0 1-6-4m0 0h0c-1-1 0-1 1-2m0 0c1-.3 3.5-1 4-2m0 0h3m8 5 2 2 4 2m0 0v1a1.7 1.7 0 0 1-1 0m0 0-4 3m0 0h-3m0 0-6-4m0 0h0l1-1m0 0 3-2h1m0 0 3-1m8 6 3 1 3 3m0 0h0a3.2 3.2 0 0 1-1 1m0 0-4 2m0 0h-2m0 1-6-4m0 0h0c-1-1 0-1 1-2m0 0c1-.3 3.4-1 4-2m0 0h2m9 5 2 2 4 2m0 0v1a1.7 1.7 0 0 1-1 0m0 0-4 3m-1 0h-2m0 0-6-4m0 0h0l1-1m0 0 3-2h1m0 0 3-1m22 5c2.5 1 7.7 4.4 10 6m0 0 1 2a.9.9 0 0 1-1 0m0 0-4 3m0-1a3.2 3.2 0 0 1-3 0m0 0-11-6m0 0c-1-1 0-2 1-2m0 0 3-2h1m0 0a3.2 3.2 0 0 1 3 0m-9-6 4 3h1m0 0 1 1a3.2 3.2 0 0 1-1 1m0 0-5 2m0 0h-2m0 0-6-3m0 0c-.6-.8.5-1.5 1-2m0 0c1-.3 3.4-1 4-2m0 0h3m-9-6c.9.6 5.5 3.1 6 4m0 0-1 1m0 0-4 2m0 0-3 1m0 0-5-4m0 0h0c-1-1 0-1 1-1m0 0c.8-.6 3.4-2.2 4-3m0 0h2m-8-5 4 3h1m0 0 1 1a3.2 3.2 0 0 1-1 1m0 0-5 2m0 0h-2m0 0-6-3m0 0c-.6-.8.5-1.5 1-2m0 0 4-2m0 0h3m-9-6c.9.6 5.5 3.1 6 4m0 0h0a3.2 3.2 0 0 1-1 1m0 0-4 2m0 0-3 1m0 0-5-4m0 0h0c-1-1 0-1 1-1m0 0c.8-.6 3.4-2.2 4-3m0 0h2m-8-5 4 3h1m0 0 1 1a3.2 3.2 0 0 1-1 1m0 0-5 2m0 0h-2m0 0-6-3m0 0c-.6-.8.6-1.5 1-2m0 0 3-2h1m0 0h3m-9-6 6 4m0 0v1a1.7 1.7 0 0 1-1 0m0 0-4 3m0-1-2 1m0 0-6-4m0 0h0c-1-1 0-1 1-1m0 0 4-2m0 0 2-1m-8-5 5 3h1m0 0v1a3.2 3.2 0 0 1-1 1m0 0-4 2m0 0h-3m0 0-6-3m0 0c-.6-.8.6-1.5 1-2m0 0c1-.3 3.5-1 4-2m0 0h3m-9-6c.9.6 5.5 3.1 6 4m0 0v1a1.7 1.7 0 0 1-1 0m0 0-4 2m0 0-2 1m0 0-6-4m0 0h0c-1-1 0-1 1-1m0 0 3-2h1m0 0 2-1m-8-5 5 3h1m0 0v1a3.2 3.2 0 0 1-1 1m0 0-4 2m0 0h-3m0 0-5-3m-1 0c-.6-.8.6-1.5 1-2m0 0 5-2m0 0h2m-8-6a48.7 48.7 0 0 1 5 4m0 0v1a1.7 1.7 0 0 1-1 0m0 0-4 3m0-1-2 1m0 0-6-4m0 0h0c-1-1 0-1 1-1m0 0 3-2h1m0 0 2-1m-8-5 5 3h1m0 0v1a3.2 3.2 0 0 1-1 1m0 0-4 2m0 0h-3m0 0-5-3m-1 0c-.6-.8.6-1.5 1-2m0 0 4-1 1-1m0 0h2m-14-9h1c.6.5 10 6.4 10 7m0 0v1h0m0 0-5 3m0 0a3.2 3.2 0 0 1-3 0m0 0-11-7m0 0c-1-1 0-2 1-2m0 0 4-2m0-1a2.9 2.9 0 0 1 3 1m8-5 9 6m0 0 1 1a2.4 2.4 0 0 1-1 1m0 0-4 2m0 0a3.2 3.2 0 0 1-3 0m0 0-9-6m0 0a.9.9 0 0 1-1-1l1-1m0 0 4-2m0 0a3.2 3.2 0 0 1 3 0m12 8 3 1 3 3m0 0h0a3.2 3.2 0 0 1-1 1m0 0-4 2m0 0-2 1m0 0-6-4m0 0h0c-1-1 0-1 1-2m0 0c1-.3 3.5-1 4-2m0 0h2m9 5 2 2 4 2m0 0v1a3.2 3.2 0 0 1-1 1m0 0-4 2m0 0h-3m0 0-5-4m-1 0h0l1-1m0 0 5-2m0 0 2-1m9 6c1.5.4 4 2.9 5 4m0 0h0a3.2 3.2 0 0 1-1 1m0 0-4 2m0 0-2 1m0 0-6-4m0 0h0c-1-1 0-1 1-2m0 0c1-.3 3.5-1 4-2m0 0h3m8 5 2 2h0l4 2m0 0v1a3.2 3.2 0 0 1-1 1m0 0-4 2m0 0h-3m0 0-6-4m0 0h0l1-1m0 0 3-2h2m-1 0 3-1m8 6 3 1 3 3m0 0h0a3.2 3.2 0 0 1-1 1m0 0-4 2m0 0-2 1m9 35v1m57-3v1m-60 1v1m32 1v1m-57-60h0m53 62v1m-3 11v1m0-13v1m2 11v1m-8-17v1m11 14v1m2-2v1m2-3v1m-55-76v1m-54 1v1m134 69v1m-84-70v1m80 71v1m-116-65v1m113 62v1m-80-72v1m69 64v1m-98-57v1m24-14v1m-20 10v1m82 59v1m14 8h0m2-16v1m2 15v1m-7-15v1m11 11v1m-13-13v1m-67-71v1m61 66h0m-66-65v1m-2-1v1m72 59v1m-78-64h0m74 65v1m-3 0v1m-5-5h0m-62-66v1m66 61v1m-70-61v1m65 61v1m-2-1v1m-65-63h0m59 59h0m-65-63v1m69 57v1m-4 1v1m-3 0v1m-43-64v2m38 57h0m-41-57v1m-2-1v1m47 52v1m-53-58v1m48 58v1m-2-1v1m-6-4h0m-20-48v1m24 42v1m-27-43v1m23 44v1m-2-1v1m-23-46v1m17 40h0m-23-45v1m27 40v1m-4 1v1m-3-1v1m-1-35h0m-5 31h0m3-30v1m-2-1v1m3 24v1m-9-30v1m5 30v2m-2-1v1m-6-5h0m22-19v1m-18 14v1m16-15v1m-20 15v1m-3-1v1m21-17v1m-26 12h0m20-17v1m-17 11v1m-4 2v1m-2-1v1m42-8v1m-48 2h0m46-1v1m-2-1v1m-40-4v1m34-2v1m-38 2v1m-3-1v1m-5-4h0m65 8v1m-61-14v1m58 13v1m-63-12h0m-3 0v1m65 10v1m-76-19v1m69 13v1m-44-16v1m-4 1v1m-3-1v1m70 21v1m-79-29v1m77 28v1m-2-1v1m-51-21v1m45 15v1m-49-15v1m-2 0v1m-6-5h0m76 25v1m-55-19v1m53 19v1m-57-19v1m-3-1v1m58 17v1m-63-23v1m57 17v1m-37-12v1m-4 1v1m-2 0v1m62 15v1m-68-21h0m66 21v1m-2-1v1m-43-15v1m37 9v1m-41-9v1m-3-1v1m-6-5v1m69 20v1m-48-15v1m45 14v1m-49-14v1m-2 0v1m49 11v1m-55-17h0m49 12v1m-28-6v1m-4 1v1m-3-1v1m54 10v1m-60-16v1m58 16v1m-2-1v1m-35-11h0m29 6h0m-33-4v1m-2 0v1m-6-5h0m60 15v1m-39-9v1m37 8v1m-41-8v1m-3-1v1m42 6v1m-48-12v1m42 6v1m-21-1v1m-4 1v1m-2 0v1m46 5v1m-52-11h0m50 11v1m-2-1v1m-27-5v1m21-1v1m-25 1v1m-3-1v1m-6-5v1m53 9v1m-32-4v1m29 4v1m-33-4v1m-3 0v1m35 1v1m-40-7h0m34 2v1m-13 3v2m-5 1v1m-2-1v1m-6-5v1m21 6v1m-4 1v1m-3-1v1m-5-4h0m20-3h0m-4 2v1m-3-1v1m-76-9h0m71-3v1m-136-49v1m132 49v1m-137-48v1m-3-1v1m137 47v1m-143-52h0m137 47h0m61 9v9m-176-59v1m-5 1v2m-3-1v1m127 33v1m-133-39v1m83 106v8m46-75v1m-2-1v1m-51 65v9m-54-109v1m99 30h0m-103-28v1m-3-1v1m-6-4h0m116 26v1m-92-20v1m88 21v1m-93-20v1m-101-7v8m98-2v1m93 18v1m-100-25v1m95 19h0m-85-13v1m55 96-2 1m108-56h1m-74-33v1m-40 12v1m-7 3v1m43-16v1m-44 14h0m42-15v1m-76-27v1m70 22h0m-75-21v1m-2 0v1m-6-5h0m87 19v1m-66-13v1m62 14v1m-66-14v1m-3-1v1m66 12v1m-71-18v1m66 12v1m-45-7v1m143-85 2.9-1m-150.9 87v1m-2 0v1m55-2v1m-61-4h0m156 36 2.9-2m-101.9-29v1m-2-1v1m-34 1v1m28-6h0m-32 7v1m-3-1v1m-5-5v1m-6-192 4-1m46 184v1m-24 14v1m20-13v1m-24 13v1m128-104 3-1m-133 105v1m23-16v1m-29 10h0m24-15v1m-3 21v1m-4 1v1m125.9-107-1 2m-127.9 104v1m14-29v1m-19 23v1m133.9 16-1 1m-118.9-40v1m-33-182h1m30 181v1m8 28v1m-14-33h0m10 34v1m-2 0v1m117.9-117h-1.9m-122 112h0m14 12v2m-5 3v1h0m6 3v1m-13-58v1m15 56v1m4-16v2m-23-41v1m19 41v1m5 8v1m-8-10v1m-19-43v1m13 37v1m9 17h0m-27-60v1m33 63h0m2 0v1m3-3v1m1-14v1m5 21h0m-9-20v1m15 23h0m-17-23v1m-29-57v1m23 51h0m25 27v1m-53-78v1m56 74v1m-58-76v1m39 66v1m-449.9-5 4 29h3c-5-28.4-11.3-72.8-24-95-27.2-44.4-50-58.7-109-72 1.1 25.6-7.1 35.3 25 25h6c2.9.6 4.8 5.2 2 7l-9 2c-6.4.9-14.4 2.1-21 2 3.1 17.5 1.8 17.1 11 18 10.4-3.9 21.8-12.5 33-14 7.2 4 1.6 11.3-6 12l-11 5a43 43 0 0 1-16 2l-4 1c-.5 5.6 3.8 14.3 9 16 12-.2 23.2-9 33-15s14.9 2.9 3 8-24.4 11.1-36 12a50.8 50.8 0 0 0 14 21c3.3 1.3 6.6-2.1 9-4a95.6 95.6 0 0 0 9-9c4.5-4.8 14-24.6 22-19 5 15.5-16 32.5-29 38-1 1-2 1 0 2 11.6 9.2 29.7 10.7 35-6 1.8-6.5 1.1-23.4 12-20 6.3 11.1-5.5 22.1-11 31 17.1 2.9 28.7-17.6 21-32-.4-2-1.5-5.1-2-7l1-1c17.5 4 23.2 46.1 26 63Zm121-8-68 34h0m314.9-135h0l-23-15-166 86m6-83h3v-2m-4 1 1 1"/><path fill="none" stroke="#000" stroke-linecap="round" stroke-linejoin="round" stroke-width=".8" d="M270.5 440.4c2.1-4.1 5-7.9 7-12h0c.3-11.8-2-27.8 12-33 6-.7 12.8-.2 18 3s9.4.3 13 4c6.3 2.5 5.4 10.7-2 9-.3 1.7-.5 14-2 15v10h-4l-1 2h0m49 82h-1m-100.9 105a18.5 18.5 0 0 0 7.9 8m94-112h-1a1.7 1.7 0 0 0-1 0h0"/><path fill="none" stroke="#000" stroke-linecap="round" stroke-linejoin="round" stroke-width=".8" d="M305.5 437.4c.3 1.8.5 3.9 2 5h0a.9.9 0 0 1 0 1h1v-1"/><path fill="none" stroke="#000" stroke-linecap="round" stroke-linejoin="round" stroke-width=".8" d="M293.5 448.4a25.6 25.6 0 0 0-2-9c2-1 3-1 3-3l4-8h3l1 7 1 1c2.8.2 5.4-1.8 8 0"/><path fill="none" stroke="#000" stroke-linecap="round" stroke-linejoin="round" stroke-width=".8" d="M307.5 442.4v1a4.7 4.7 0 0 0-1 1v1h0c-.5 1.6-2.7.9-4 1s-5.3-2.4-6-2l-3 4h0l-1 1m-28-5 1-6a1.7 1.7 0 0 1 0-1m28 213a83.4 83.4 0 0 0 10 0m-2-181c0 6.3 1 17 3 23l-1 8 1 9 1 1 2 11m-22-70c4.8 5.5 13.2 11.2 16 18m17 267c2.3.6 2.9-4.3 1-5-2.3-2.7-7.2.5-10-2h-3l-12-9m2 18c6.9-.6 16.2 1.9 22-2m-44-14-2 10-1 1c.1 1.3-.2 2.7 0 4 5 2.9 12.1 3.5 18 3v-2a40.9 40.9 0 0 1 7 0m43-206c2.8-.1 14.3 3.4 14-1m-38-107-1-1m-55.9 38q-1.1 10 .9 15m56-52-2-1m-2 4h0l2 1a1.9 1.9 0 0 0 1-1m-57.9 59c-4.9 26.9 9.1 42.8 28.9 60m73-21c.6 1.8 2 3.3 4 3m-51 49c2.5-3 0-11.4 0-15a177 177 0 0 0-1-23m49-14h1v1h1v1h1m-46-103-2-1m-37 5c16.4-3.6 5.7-4.7 14-9m4 3a2.4 2.4 0 0 1-1 1 .9.9 0 0 0-1 0c-.5 1.1 1 2.2 2 2"/><path fill="none" stroke="#000" stroke-linecap="round" stroke-linejoin="round" stroke-width=".8" d="m283.5 725.4 1 5c7.4.9 7.4-.1 7-7m25-299-1-1m-3 13h-1c0-1.1-.2-2.4 1-3m-7 4 5 2 1-1h-2a6.3 6.3 0 0 0-4-1h0c.7 1.8 2.4 3.2 3 5m10-31c-1.4-.4-6.5-2.5-8-2 .4 14.1-8.3 7.8-9 19m-7 111c3.4 10 4.7 19.3 4 28m61-42h0l1-1h0a.9.9 0 0 0-1-1l-2-2c-2.8.4-5.4-1.2-8-2h-10m17 6h3m-64-104-2-2c-3.3-.3-3 11.3 1 9m-51.9 288h0c0 4 1 5 2 5a5.6 5.6 0 0 0 4 1l1-6m26.9 7h0a116.9 116.9 0 0 0-3 12m23-316a12.5 12.5 0 0 1 2 9m30 91c2.4 5.5 1.1 11.6-1 17m-17 41v-2"/><path fill="none" stroke="#000" stroke-linecap="round" stroke-linejoin="round" stroke-width=".8" d="M276.5 598.4c2.1 10.5 3.8 27.3 5 38h0v5a2.3 2.3 0 0 0 0 2c.6 2.6 1.9 5.1-1 7-.3 4.7-1.9 9.2-3 14-.3 8.8-1.5 26.4-1 35-1 3.1-1.1 10.7-1 14s-1.9 6-1 9a1.7 1.7 0 0 0 1 0c5.4 4.4 14.9 4.1 19-2h0a3.5 3.5 0 0 0 1-2l-1-1c0-2.3-.2-4.7 0-7s1.6-4.2 1-6-1.8-4.8-1-7c2.5-9.2 3.6-22.8 6-32-.4-4.5.8-9.7 2-14h1a6.7 6.7 0 0 1 0-2c1.8-1.9 3.9-4.2 3-7h0c-.5-4.8 1.4-10.2 2-15v-8c.9-13 5-29.1 2-42m-44-1c3.1 13.2 6.3 12.7 10 22h0m-3 36v9m-42.9 82c4.9-.1 8.5 2.3 15 6"/><path fill="none" stroke="#000" stroke-linecap="round" stroke-linejoin="round" stroke-width=".8" d="M280.5 571.4h14v24a1.9 1.9 0 0 1-1 3c-4.5.5-12.5 1.5-17 0h0m28-78 3 1 13-1a92.4 92.4 0 0 1 19-1c2.5 4-.2 8.7 0 13h0a11.8 11.8 0 0 1-1 3c-1.9 1.3-8.7 1-11 1s-4.4.7-6 2-7.8 1.1-11 1c-15.9-.4-28.4 4.5-31-16a188.7 188.7 0 0 0-4-20.4c-1.7-10.8-.6-25.6-2-36.6m41-42-1-1m47 97v-1h0c5.2-.2 10.8-1.8 16 0h5l-2 9-2 3h-13l-1-3h-1c-.2-2.7-2.3-5.1-2-8Zm-45-96-1-1m-25 315a48.6 48.6 0 0 1-18-4m21-275a9 9 0 0 1 3-7l-1-2c-4.4-2.7-8.2-6.9-14-7-1.5-.3-6.7-.9-8-2-2.9.5-5.3-1.9-7-4l6 2m42-15-2-1m-15-2c.3-1.6-.4-3.9-2.5-3.2-6.3.8-3.9 15.7 2.5 10.2m-38.9 164 7.9 3c.3-.7-.8-4.3-1-5-.7-3-1.6-9.9-2-13"/><path fill="none" stroke="#000" stroke-linecap="round" stroke-linejoin="round" stroke-width=".8" d="M251.6 551.4c2.2 7.8-1.4 17 3 24a1.7 1.7 0 0 0 0 1c2 1.9 5.4 1.1 7.9 1 16.3-3.1 34.5-19.8 48-2h0a7.5 7.5 0 0 1 1 2h-1m-65.9-92c.9 21.5 3.8 44.6 7 66h0m61.9-127-1-1"/><path fill="none" stroke="#000" stroke-linecap="round" stroke-linejoin="round" stroke-width=".8" d="M251.6 551.4h0c-3-6.9-9.7-29.5-12-37v-15c-.9-5.2 1.1-14.8 2-20s-.3-13.9 3-19c3.9-9.6 6.6-16.5 19.9-16 6.3 4.5 13.7 5.7 21 7 2.5 1.3 5.1 4 7 6"/><path fill="none" stroke="#000" stroke-linecap="round" stroke-linejoin="round" stroke-width=".8" d="M301.5 469.4h0c-11-12.2-21 6.4-23 16m-26.9-24c-1 10 0 28 3 40m4 56a47 47 0 0 1 33.9 2m2 89 8-2m-28 73c9 4.7 13.6 4.2 20-1h0m-41.9-3h0c3-5.4-1.5-12.8 3-18s2-13.9 3.9-20 2.9-12.3 7-16l3-5c.2-1.6-.3-4 2-4s4.2-3.4 5-5 1.1-2.9 2-4l3-7m-26.9 3h0c-2.1 1.5-3.4 3.4-3 6l-3 4c-3.9 10.8-8 23.5-9 35-1.7 8.1-4.7 17.9-6 26h0a15 15 0 0 0 0 3h1c2.7 3.2 8.1 3.1 12 3 1.9 0 4.4.6 6-1m2-139 3 10c.1 1.3-.2 4.6 0 6a19.6 19.6 0 0 1 .9 8l1 14c-.2 3-1.3 5.9-.9 9 .6 1 1.3 2.7.9 4a4.3 4.3 0 0 1-.9 1c-.4 1.3.2 2.7 0 4-2.5 1.7-2.2 5.2-4 7m-5 93h22.9m43-308-1-1m-18 315h0c6.5 3.7 15.3 2.5 22-2h0m-53-10 3 3m20-75 10-1m-44.9-116c5.9 6 16.9 5 21.9 5m-20.9 97h0a81.7 81.7 0 0 0 9.9 0"/><path fill="none" stroke="#000" stroke-linecap="round" stroke-linejoin="round" stroke-width=".8" d="M232.6 712.4c-.5 2.2-2.5 10.9-2 13l-1 1v2l15 4 1-2c7.8 5.3 17.2 4.5 25.9 3m41-298h0a13.3 13.3 0 0 1 2 0Zm-19 209c6 0 10.4-.7 13-2m-72.9 68a23.6 23.6 0 0 0 20 3m53.9 16 3 5m4-310-2-1m4 1-2-1m40 102h2c1.3.9 1.6 2.1 0 3s-4.9.2-7 0m1-4a13.1 13.1 0 0 1 4 1m-101.9 190h0c2.1 2.1 6.9 11.5 10.9 10l2 1c2.2 0 6.2-.2 8 1m81-202h0a41.7 41.7 0 0 1 5 0m-10-6c3.3.2 6.8-.2 10 0a.9.9 0 0 1 0 1h0a1.9 1.9 0 0 1-1 1h0m-11 9c2 .5 8.5 2.7 8-1"/><path fill="none" stroke="#000" stroke-linecap="round" stroke-linejoin="round" stroke-width=".8" d="M232.6 725.4h0c0-5 2-8 3-11m492.8-122-42-28"/></svg>