<svg id="Layer_1" width="120" height="120" data-name="Layer 1" xmlns="http://www.w3.org/2000/svg" xmlns:xlink="http://www.w3.org/1999/xlink" viewBox="0 0 1000 1000"><defs><style>.cls-1{fill:url(#linear-gradient);}.cls-2{fill:url(#linear-gradient-2);}.cls-3{fill:url(#linear-gradient-3);}.cls-4{fill:url(#linear-gradient-4);}</style><linearGradient id="linear-gradient" x1="221.81" y1="633.86" x2="665.61" y2="470.49" gradientUnits="userSpaceOnUse"><stop offset="0" stop-color="#2622e4"/><stop offset="0.76" stop-color="#b100ff"/></linearGradient><linearGradient id="linear-gradient-2" x1="281.35" y1="457.48" x2="281.38" y2="457.48" gradientUnits="userSpaceOnUse"><stop offset="0" stop-color="#2622e4"/><stop offset="1" stop-color="#b100ff"/></linearGradient><linearGradient id="linear-gradient-3" x1="379.5" y1="279.91" x2="722.69" y2="645.19" gradientUnits="userSpaceOnUse"><stop offset="0.15" stop-color="#b100ff"/><stop offset="1" stop-color="#2622e4"/></linearGradient><linearGradient id="linear-gradient-4" x1="368.83" y1="294.54" x2="371.94" y2="297.85" xlink:href="#linear-gradient-3"/></defs><path class="cls-1" d="M666.3,698.17c-5.44,16-21.17,24-41.2,27-51,7.68-129.88-16.39-137.19-18.68l-.26-.08-.19-.06-.1,0c-50.26-14.55-86-36.18-115.59-60.43C280.4,571,282,465.74,281.4,457.82c0-.05,0-.1,0-.15v-.37a257.43,257.43,0,0,1,2.73-41.83A151.56,151.56,0,0,1,298.44,371q2.19-4.46,4.55-8.79v0c.74,1.79,48.11,116,108.07,131.91,36.69,9.72,40.36,44,48.26,64.89,11.81,31.2,30,59.66,54.35,82.48C548.17,673.87,600.18,706.07,666.3,698.17Z"/><path class="cls-2" d="M281.38,457.3v.37l0-.39Z"/><path class="cls-3" d="M711.26,586.48l0,0a49,49,0,0,1-5.35,3.23c-11.51,8.12-37.49,33.3-37.51,95h0a41.44,41.44,0,0,1-2.06,13.38c-66.12,7.9-118.13-24.3-152.62-56.66-24.33-22.82-42.54-51.28-54.35-82.48-7.9-20.86-11.57-55.17-48.26-64.89C351.11,478.26,303.74,364,303,362.23v0c14.07-26.91,37.18-46.86,58.42-60.7h0c6.24-4.07,12.31-7.6,17.94-10.63,27.3-13.16,58.5-16.7,77.89-17.52h.05c5.4.05,10.78.26,16.16.6a353,353,0,0,1,48.62,6.56c21.28,4.34,42.21,9.83,62.16,18.6C610,310.41,632,326.5,649.37,348.74c8.41,10.77,14.22,22.92,18.46,35.84a290.27,290.27,0,0,1,12.44,53.49c1.73,13.47.72,26.81-2,40.06-.77,3.69-1.27,7.43-1.93,11.14-1.4,7.9.92,15.05,4.42,22,6,11.83,13.55,22.69,21.2,33.48,4.11,5.8,8.34,11.53,12.21,17.48a28.12,28.12,0,0,1,4.23,9.2C719.69,577.9,716.34,582.85,711.26,586.48Z"/><path class="cls-4" d="M361.42,301.51a116,116,0,0,1,17.94-10.63C373.73,293.91,367.66,297.44,361.42,301.51Z"/></svg>