<svg xmlns="http://www.w3.org/2000/svg" xmlns:xlink="http://www.w3.org/1999/xlink" width="50" height="50" viewBox="0 0 322 321.99"><defs><linearGradient id="a" x1="497.26" y1="263.4" x2="479.32" y2="677.69" gradientUnits="userSpaceOnUse"><stop offset="0.22" stop-color="#fb145f"/><stop offset="0.85" stop-color="#fd5d4c"/></linearGradient><linearGradient id="b" x1="541.88" y1="265.33" x2="523.94" y2="679.62" xlink:href="#a"/></defs><path d="M464.8,412.82,381.91,608.64A161,161,0,1,1,638.45,416.79L584.66,560.07A44.21,44.21,0,0,1,549,588.77c-8.45,1.07-15.14-.46-20.44-4.68a24.12,24.12,0,0,1-7.21-27.23l39-107.35a54.79,54.79,0,0,0-2.28-42.73,52.6,52.6,0,0,0-31.48-27.17c-16.1-5.12-31.68-1.71-45.05,9.85A63.76,63.76,0,0,0,464.8,412.82Z" transform="translate(-339.36 -338.61)" fill="url(#a)"/><path d="M661.36,499.61A161,161,0,0,1,396.62,622.72l85.71-202.48A44.72,44.72,0,0,1,494,403.84c8.44-7.29,17-9.23,26.82-6.1A33.73,33.73,0,0,1,541,415.18,35.74,35.74,0,0,1,542.5,443l-39,107.36A43.11,43.11,0,0,0,516.75,599c9.4,7.48,21.07,10.4,34.7,8.66a63.18,63.18,0,0,0,51-40.88L650,440.12A160.41,160.41,0,0,1,661.36,499.61Z" transform="translate(-339.36 -338.61)" fill="url(#b)"/></svg>